<svg xmlns="http://www.w3.org/2000/svg" viewBox="0 0 273 164"><defs><style>.cls-1{fill:none;}.cls-2{fill:#fff;}</style></defs><title>Gatsby</title><g id="Calque_2" data-name="Calque 2"><g id="Calque_1-2" data-name="Calque 1"><rect class="cls-1" width="273" height="164"/><path class="cls-2" d="M143.81,125.5c-13-.46-26.08-5.12-35.86-14.9a50.55,50.55,0,0,1-14.9-35.39Z"/><path class="cls-2" d="M143.34,126c.12,0,.22-.18,0-.31l-.34.13Z"/><path class="cls-2" d="M142.73,124.51c-.3-.07-.71-.08-.8.25.4,0,.35.09.81,0,.19.12.2.34.09.4.11,0,.19.29.42.23a.82.82,0,0,0-.69-.76C142.55,124.54,142.67,124.54,142.73,124.51Z"/><path class="cls-2" d="M127.92,109.11l.07.12A.37.37,0,0,0,127.92,109.11Z"/><path class="cls-2" d="M118.64,99.66c.08.07.14.07.16.06S118.65,99.63,118.64,99.66Z"/><path class="cls-2" d="M117.3,97.81l.08.11C117.36,97.86,117.34,97.82,117.3,97.81Z"/><path class="cls-2" d="M127.92,109.11l-.18-.33C127.65,108.84,127.81,109,127.92,109.11Z"/><path class="cls-2" d="M140.07,123a.53.53,0,0,0,.2.07l-.15-.1Z"/><path class="cls-2" d="M132.25,113l.08.08.16,0Z"/><path class="cls-2" d="M135.47,116.14c-.07-.08-.29.09-.4.15a.32.32,0,0,1,.29,0A.62.62,0,0,0,135.47,116.14Z"/><path class="cls-2" d="M140.16,121.48l.12.06Z"/><path class="cls-2" d="M130,110.72a.21.21,0,0,0,0-.1A.13.13,0,0,0,130,110.72Z"/><path class="cls-2" d="M138.8,123.78a.09.09,0,0,0,0,0S138.83,123.79,138.8,123.78Z"/><path class="cls-2" d="M143.81,125.58h-.08a.77.77,0,0,0,0,.15Z"/><path class="cls-2" d="M114.61,94.65h0C114.72,94.72,114.67,94.68,114.61,94.65Z"/><path class="cls-2" d="M92.76,84.33c.17-.48.44.64.6-.06C93.26,84.35,92.82,83.76,92.76,84.33Z"/><path class="cls-2" d="M140,122.89l-.14-.13A.51.51,0,0,0,140,122.89Z"/><path class="cls-2" d="M93.36,84.27h0v0Z"/><path class="cls-2" d="M107.73,88.06a.29.29,0,0,0,0,.16A.23.23,0,0,0,107.73,88.06Z"/><path class="cls-2" d="M112.49,93.34l-.1-.15A.44.44,0,0,0,112.49,93.34Z"/><path class="cls-2" d="M104.83,85.75c0-.08,0-.14-.17-.2v0C104.73,85.61,104.78,85.64,104.83,85.75Z"/><path class="cls-2" d="M102.1,83.05s0,.06,0,.09l.1.07Z"/><path class="cls-2" d="M127.67,121.39a.84.84,0,0,1,.08.29C127.76,121.47,128.31,121.58,127.67,121.39Z"/><path class="cls-2" d="M140.18,122.89a.15.15,0,0,1-.16,0l.1.08A.09.09,0,0,0,140.18,122.89Z"/><path class="cls-2" d="M103.16,87.21l-.41-.46A4.12,4.12,0,0,0,103.16,87.21Z"/><path class="cls-2" d="M105.73,106.46l.11.08A.18.18,0,0,0,105.73,106.46Z"/><path class="cls-2" d="M101.44,85.51a.89.89,0,0,0-.11-.38h-.1Z"/><path class="cls-2" d="M127.76,121.69h0Z"/><path class="cls-2" d="M131.7,122.16c-.54-.16-.34.28-.51.45-.69-.07-.24-.34-.41-.58-.43,0-.84.22-1.14.12,0-.06-.06-.1,0-.15-.51.14-1.26-.4-1.88-.21a.16.16,0,0,1,0-.1.94.94,0,0,1-.09.5c-.25-.07-.53.07-.55-.18.15,0,.2,0,.29-.09l-.29,0c-.11-.41.39,0,.47-.24a3.93,3.93,0,0,1-1.54-.24c0-.35.91.22.52-.25l.53.34c-.26-.67.34.17.13-.53-.73-.37-.91-.15-1.63-.53-.24.12,0,.28-.29.4-1.21-.11-.51-1.14-1.47-1-.29.12-.54.48-1,0l.34-.27c-.7-.35-.64.31-1.27-.28.19-.07.61.16.52.06-.35-.5-.43,0-.8-.15l.07-.34c-.78-.3-1.71-.52-2.55-.92.09-.07.28-.08.14-.28a9.58,9.58,0,0,1-3-2.07h-.51c-.08-.06-.08-.21,0-.2-.3-.34-.12.14-.36.12s-.18-.33,0-.31a5,5,0,0,1-2.57-1.61l.18,0c-.42-.48-1,0-1.23-.56l.12,0c-.48-.5-1.06-.94-1.58-1.39a5,5,0,0,1-1.17-1.48c-.45.18-.84-1.09-1.31-.75a5.64,5.64,0,0,0-.73-1.62c-.17-.23-.56-.08-.85-.32l.23-.21-.57-.17.11-.44-.29-.21c.08.12.09.31,0,.35-.47-.31-.69-1.13-.56-1.25l-1-.84c.12,0,.28.09.45.17-.67-.34.18-.29-.43-.6,0,.1-.17.07-.23.1a3.21,3.21,0,0,0-.81-1.31l.23,0a11.22,11.22,0,0,0-.87-1.19c-.29-.41-.6-.84-.88-1.28.11.37-.24.49-.44.25l.21-.28c-.28-.07.07.34-.36.12-.18-.36.17-.42.38-.28l-.35-.35c.07-.07.17,0,.3,0-.29-.06-.13-.88-.58-.95l.07-.07c-.51-.92-.85-1.27-1.24-2-.26.11-.35-.22-.67-.35-.22-.6-.31-1.33-.63-2-.35-.43-.29,0-.54-.2.22-.14-.11-.83.22-.54A18.9,18.9,0,0,0,97,91.83c0,.16,0,.31-.15.27s-.07-.49.05-.5l0,0c-.81-1.11-.26-3.07-1-3.91l0,0-.56-1c-.07-.49.26.24.33-.16-.66-1-.37-1.78-.81-2.66a2.19,2.19,0,0,0,0-1.73,4,4,0,0,1-.13-1.89l-.17.07c-.2-.23.06-.31.08-.5-.13,0-.12.29-.24.14-.07-.33-.08-.37-.1-.51a2.53,2.53,0,0,1,0-.38,3.25,3.25,0,0,1,0-.33.19.19,0,0,1,.07-.13c.07,0,.12,0,.21.14a1.44,1.44,0,0,1,.18.4,2.21,2.21,0,0,1,0-.55c0-.25.12-.33.18,0a1,1,0,0,0-.14.32.1.1,0,0,1,.1,0s0,0,.25.16.62.59.92.9a12.63,12.63,0,0,0,1.9,1.69c-.12,0-.19,0-.31-.06.08.41.91.91,1,.78.17.19-.08.16,0,.35.15.34.84.4.81.7,0,0-.13,0-.19,0,.25.08.74.77.78.42.34.53.93.75,1.16,1.21.45,0,.65.85,1,.62-.35.29.52,1,1,1.14-.19,0,.14.34-.1.37.32.31.67.54.78.32.2,1,1.48.86,1.32,1.68,1.12.76,2.1,1.51,3,2.27-.35.29-1-.9-1.27-.52a10,10,0,0,1,2.4,1.72c.16.25-.26,0-.38,0,.93.66,1.52,1.57,2.41,2.1,0,0-.14,0-.24-.06.16.13.29.37.41.21l-.17-.1c0-.43,1,.11,1.13,0-.65.18.6.8-.3,1,.12.07.31.12.38,0,.11.16.1.26-.15.23.58.43.56.09,1,.55-.07.07-.19,0-.32,0a1.65,1.65,0,0,1,1.07.63c-.07,0-.08.12-.19,0,.68.64,1.49.76,2.09,1.61-.52.1.15.35-.08.65l.47.31,0-.28c.34.34.84.45,1,.83l-.37-.14.7.58-.27-.46c.49.21.3-.37.68.16-.12-.07.34.34.37.67h0a1.12,1.12,0,0,1,.71.49c0,.15-.34.24-.36.34.39-.06.87.73,1.31.71a.31.31,0,0,0-.27.17l.32,0c.1.22.1.27,0,.35.45.51.18-.48.61.22-.06,0-.07,0-.19,0,.5.64,1.22,1,1.66,1.58-.11.42-.53-.39-.57,0a23.35,23.35,0,0,1,2.55,2l-.11-.16c.48-.28.36.72.91.91-.12-.06-.33.09-.26.08a10.13,10.13,0,0,0,2,1.55h-.19a15.27,15.27,0,0,0,1,1.18c.19,0,.36.19.39-.06.44,1.52,2.17,1.56,2.58,2.88-.1-.1-.33-.16-.25-.08l.84.65c.1-.22,0-.19,0-.48a1.11,1.11,0,0,1,.66.31c-.45-.22-.26.27-.21.51,0-.08.13-.09.17-.15.1.68.39-.26.73.46l-.12.06a2.48,2.48,0,0,1,.73.45c-.1.28-.3-.12-.47,0,.31.29,1,.23,1,.69-.18-.07-.37-.25-.55-.33a1.12,1.12,0,0,0,.35.75v0l.4.61-.06-.19c.86-.12.85.67,1.68.84-.8-.18-.26.1-.51.28.07.19.2.45.08.45.42.07.27.54.86.62-.06.08.25.26,0,.38.37.25,0-.2.16-.26.71.24.84,1.41,1.85,1.77.73.45,1.07.33,1.74.76.08.29-.4.1-.4.1a1.72,1.72,0,0,0,.8.8c-.11,0-.11.12-.1.28.25.21.4-.1.6.3a1.26,1.26,0,0,1-.5,0c.33.2.72.34,1.06.55,0,.19-.35,0-.52,0,.36.25.92.69,1.2.59l-.13-.26c.12.1-.11.22-.22.17a.35.35,0,0,1-.27-.53l.24.15c.2-.61-.86-.72-1.23-1.14l.46-.13-.65-.16c0-.16.09-.39.33-.23-.14-.43-.36-.15-.44-.56,0,0,0,0,.06,0l-.36-.18c.11,0,.16-.26.29,0-.34-.66-1-.57-1-1l.06,0c-.79-.59-.28.15-1.05-.11l.18-.88-.28.15c-.07-.08-.19-.24-.08-.3-.41-.11,0,.14-.34.13-.15-.54-1-.85-.78-1.27-.29,0,.2.45-.28.2.27-.48-.48-.36-.63-.84.29-.1.48.3.34-.18-.51.13-.54-.68-.87-.88-.27.24-.68-.46-1.21-.82.11-.06-.7-1-1-1.48l.05,0c-.34.18-.72-.29-1.08-.54.17-.15.28-.15.52-.06l-.29-.28a.79.79,0,0,1-.51-.19l.27-.13c-.4-.37-1-.54-1.38-1.17-.21.16-.11.9-.76.5.08-.12.23-.31.4-.21,0,0-.24-.08-.29-.21l.38,0c-.16-.3-.26,0-.43-.17.15-.14,0-.24.11-.32s.1.21.22.23a1.27,1.27,0,0,1-.32-.75.22.22,0,0,1-.36.06c-.4-.38,0-.3-.12-.6-.19,0-.34-.34-.55-.14-.12-.11,0-.23,0-.33-.29-.11-1-.91-1-.46l0,.07,0,0h0c-.87-.44-1.26-1.47-2-2l.07-.07a6.78,6.78,0,0,0-1.35-.94c-.11-.12-.14-.4,0-.44-.35-.24-.46-.19-.78-.74.42.18,0-.21.39.22-.32-.45-.3-.65-.91-.87.32,0-.07-.52-.3-.64l.14.39a3.84,3.84,0,0,1-.57-.57l.34-.14c-.51-1.07-1.92-.93-2-2-.37,0,.32.55-.06.55-.34-.39-.38-1.11-.5-1.22-.37-.63-.81-.12-1.24-.73,0,.15-.18.44-.65.13s-.1-.8.2-.64c.1.08.11.15.08.18.15.08.34.2.29,0l-.14,0c-.09-.26-.6-.75-.35-.78-.36-.19-.25,0-.09.27-.35-.58-.73-.73-1.13-1.29,0,.12,0,.29-.08.22-.6-.81-.47-.15-1-.59-.15-.4.4-.21-.19-.58-.21-.38.16-.29.34-.24-.6-.27-.71-.92-.94-1.2l.3.16a1.5,1.5,0,0,1-.4-.33l0,.3c-.11-.16-.22-.27-.15-.34-.25,0-.17.38-.6.26-.09-.27-.64-.46-.48-.74.49.64.16-.29.68.15a.92.92,0,0,1-.34-.34c0-.05.06,0,.11,0-.35-.75-.5,0-1.06-.57.2,0,.11-.37,0-.43.22.23-.1.32-.41.21-.26-.46-.46-.32-.64-.52l.17.26c-.2.05-.37-.14-.66-.35.08-.12.3.16.25,0-.5,0-.41-.85-1-1.09-.09-.27.22-.26.12-.47-.6-.28-.31-.65-.9-1,0,.3,0,.28-.46.13l.88.63-.73-.24c.22.23.58.37.69.54-.37-.09-.3-.11-.33.14-.06-.57-.77-.47-1-1l.43-.41c-.36-.72-1.18-.74-1.79-1.55l.16.3c-.26.07-.46-.41-.76-.57.16-.12.07-.31.06-.49-.09.11-.51-.53-.85-.31l-.13-.5c-.5-.64-1-.24-1.55-.84.31,0,.16-.33.64-.08-.18-.18-.32-.37-.42-.27,0-.2-.7-.32-.74-.62-.13,0-.3.11-.5-.11,0,0,.07-.06.07-.06s-.41-.23-.39.1c-.13-1-1.61-1.53-1.73-2.39-.44-.35-1-.78-1.34-1.13.06,0,.07-.07.12,0-.37-.62-.71.1-1.13-.61-.07-.52.42.18.33-.09.37-.54-.75-.62-.87-1.27l.12.07c-.14-.45-.89-.54-1.34-1,0,0,.07,0,.08-.07a5.18,5.18,0,0,1-1.79-1c.32,0,.31.11.4-.16-.24-.18-.21.38-.71,0a4,4,0,0,1-.36-1.11l.57.55a1,1,0,0,0-.47-.66,2.48,2.48,0,0,1-.56-.44l.06-.16c-1-.9-.88-.24-1.72-1.09l.16.31c-.1.17-.21,0-.35-.24s-.31-.5-.39-.38l-.52-1-.1,0a2.15,2.15,0,0,0,0,.36l.16.88c.11.61.21,1.18.26,1.58a22.35,22.35,0,0,1-.7-3.12,9.29,9.29,0,0,0,.29,2.3,2.28,2.28,0,0,1-.1-.73,10.43,10.43,0,0,1,.54,2.67c-.4-.44-.41.07-.4.73A3.22,3.22,0,0,1,92.18,80c.44,1.18.13,2.32.44,3.66.5-.57.08.39.67.2.09.3.1.42.07.45-.07.34-.13.67-.17,1s-.2-.27-.33-.21c.11.68-.19.33-.25.82.2-.14.36.16.37.57l.15-.61c.54.87-.33.94.23,1.81l-.27-.25c.25.45.5,1.79,1.1,2.12,0,.1-.17.27-.28.07.31,1.16,1.3,2.36,1.38,3.31l-.18,0c.12.2.4.26.36.58-.06,0-.17,0-.14.07a1.54,1.54,0,0,1,.48.76l-.24-.17c.26,1.15,1.09,1.47,1.56,2.31-.4.19-.12,1.07,0,1.51l-.06,0a13.58,13.58,0,0,0,2.16,2.87c0,.9,1.19,2.36,1.71,3.52,0-.2.3-.17.46,0s.72.48.36.68l0-.09c-.2.41.24.85.53,1.22l.47-.26a3.2,3.2,0,0,0,1.15,1.84c.54.5,1,1,1,1.43.29.14.53.42.84.54l-.22.18a10.82,10.82,0,0,0,1.53,1.66h-.29c.39.42,1.1-.08,1.49.27l-.18.42c.37.34.67.76,1,1.13a3.19,3.19,0,0,0,1.24.86.23.23,0,0,1-.29,0c.35.32,1.23,1.4,1.46.83-.22.3.8.66,1.33.85l-.23.17a1.88,1.88,0,0,1,1.21.21c.1.11,0,.26-.14.08.33.41.47,0,.88.47l-.28,0c.41.31.43.21.78.2s.76.6.7.84a.63.63,0,0,1,.71.1c0,.11-.14.1-.2.09.64.61,1.24.41,1.62.93a.21.21,0,0,0,0,.19,6.64,6.64,0,0,1-1-.64c-.13.22.32.55-.24.62a3.94,3.94,0,0,1,1.77.45.36.36,0,0,1,0,.11h-.07a.68.68,0,0,0,.32.13,2.2,2.2,0,0,0,.36.28c0,.22.5.42.75.54.11-.26.41-.06.22-.41,0,0-.07,0-.24-.07l-.11,0h0l-.61-.31a.66.66,0,0,1,.71.26c.21-.09.43-.19.55-.23.16.51.72,1,.71,1.28.82.25,1.86.73,2.55.45.24,0,.19.25.24.36-.14,0-.29-.07-.39,0,.49.07,1.33.5,1.57.18.5.37-.44.2.36.43l-.15.07c1.34,1.15,2.79,0,4.27,1.24-.1-.08-.16-.11-.16-.18,1.89.88,4.14.79,6,1.63.55.21.65,0,1-.12l.08.31.64-.26c.87-.15,1.36,1,2.49.58l-.11-.22c.38.08,1.22,0,1.14.23,0,0,.14-.2.28-.08v.16l1-.2c.72.15-.16.62.92.71.4,0,1.16-.4,1-.51s-.41-.12-.41-.28l.36-.06c.09-.47.37-.93-.48-1.3l-.62.25-.19-.24.51,0c-.27-.23-.47,0-.68.06a.41.41,0,0,0-.24-.26l-.63.41c-.05-.19.3-.34-.09-.47-.3.18.23.43-.24.52-.27-.24-.17-.4-.53-.25,0-.13,0-.2.18-.24-.31.12-.8,0-1,.22-.28-.29-1,0-1-.48a1.71,1.71,0,0,1-.85.25c.58-.45-1-.18-.81-.72-.45.44-1.37,0-2.07.13,0,0,.13-.1.18-.06a2.21,2.21,0,0,1-.66-.4c-.13.38-.72.34-1.08.51-.37-.47.37-.39.31-.78,0,.32-.85.14-.75.43-.29-.31-.27-.18-.38-.53-.17.46-.33,0-.69.23-.43-.36,0-.48-.59-.48C131.18,122.2,131.7,122.16,131.7,122.16Zm-12.6-4.1h0l.25.12Zm-1-.55a2,2,0,0,0,.42.26c0,.1-.11.17-.2.11C118.42,117.85,118.22,117.67,118.12,117.51Zm1.17,2.88c-.18,0-.21-.13-.2-.19l.3.12,0,0A.38.38,0,0,1,119.29,120.39Z"/><path class="cls-2" d="M119.75,120.22s0,0,.08,0l-.07-.11-.1.05Z"/><path class="cls-2" d="M128,109.25v0s0,0,0,.06S128,109.27,128,109.25Z"/><polygon class="cls-2" points="106.64 107.31 106.59 107.36 106.7 107.39 106.64 107.31"/><path class="cls-2" d="M131.78,114.36a.12.12,0,0,0,0,.1S131.79,114.41,131.78,114.36Z"/><path class="cls-2" d="M133.66,116.31l.2.34A1.6,1.6,0,0,0,133.66,116.31Z"/><path class="cls-2" d="M135.05,117.88l.11-.06h0Z"/><path class="cls-2" d="M111.26,94.78l-.06,0C111,94.64,111.13,94.71,111.26,94.78Z"/><path class="cls-2" d="M118.73,101.25a1.66,1.66,0,0,1-.31-.12C118.53,101.26,118.62,101.36,118.73,101.25Z"/><polygon class="cls-2" points="103.2 87.26 103.2 87.26 103.16 87.21 103.2 87.26"/><path class="cls-2" d="M118.09,100.8a.8.8,0,0,0,.33.33A1,1,0,0,0,118.09,100.8Z"/><path class="cls-2" d="M141.38,124.33l.06.08a.05.05,0,0,1,0,0Z"/><path class="cls-2" d="M141.48,124.38l.1.06S141.51,124.37,141.48,124.38Z"/><path class="cls-2" d="M141.8,124.55l-.22-.11C141.64,124.49,141.7,124.57,141.8,124.55Z"/><path class="cls-2" d="M139.51,122.29l-.1,0A.19.19,0,0,0,139.51,122.29Z"/><path class="cls-2" d="M138.89,121.72c.13.16.2.51.45.66l.07,0C139.21,122.36,139.15,121.73,138.89,121.72Z"/><path class="cls-2" d="M137.29,118.36l.44.56c0-.17,0-.39.22-.18C137.55,117.89,137.91,119,137.29,118.36Z"/><path class="cls-2" d="M135.85,116.72c.31.23.11-.12.17-.15C135.78,116.47,135.72,116.45,135.85,116.72Z"/><path class="cls-2" d="M124.67,105.63l.2-.15C124.64,105.3,124.8,105.54,124.67,105.63Z"/><polygon class="cls-2" points="121.6 104.45 121.69 104.76 121.95 104.69 121.6 104.45"/><polygon class="cls-2" points="121.61 101.91 121.73 101.97 121.32 101.69 121.61 101.91"/><path class="cls-2" d="M102.76,83.35l-.16.29C102.78,83.74,103.06,83.51,102.76,83.35Z"/><path class="cls-2" d="M93.5,74.65c-.2-.42-.65-1-.73-.85C93.06,74.11,93.4,74.61,93.5,74.65Z"/><polygon class="cls-2" points="102.77 106.59 102.54 106.46 102.88 106.76 102.77 106.59"/><path class="cls-2" d="M195.5,74.27a51.39,51.39,0,0,1-40.05,49.84l-61-61A51.2,51.2,0,0,1,185.72,44l-7,6.06a43,43,0,0,0-34.47-17.7A42.35,42.35,0,0,0,104.69,60.3l53.56,53.56a42.3,42.3,0,0,0,27-30.31H162.9V74.27Z"/><path class="cls-2" d="M195.5,74.94c.29-.09.13-.28-.68-.24l-.57.33Z"/><path class="cls-2" d="M190.08,74.33c-1,.16-2,.44-1.43.74.94-.32,1.17-.18,2.18-.56.81,0,1.41.1,1.27.23.29-.09,1.25.07,1.69-.14a10.24,10.24,0,0,0-3.77,0C189.72,74.47,190,74.39,190.08,74.33Z"/><path class="cls-2" d="M176,101l.35-.36C176.26,100.7,176.14,100.83,176,101Z"/><path class="cls-2" d="M140,94.67c.26.25.4.34.43.33C140.14,94.77,139.93,94.59,140,94.67Z"/><path class="cls-2" d="M134.33,88.51l.33.37A1.55,1.55,0,0,0,134.33,88.51Z"/><path class="cls-2" d="M176,101l-.91.92C175.13,102,175.59,101.44,176,101Z"/><path class="cls-2" d="M179.21,75.12a4.65,4.65,0,0,0,.71-.08l-.67,0A.1.1,0,0,1,179.21,75.12Z"/><path class="cls-2" d="M183.47,84.28h-.22a.94.94,0,0,1-.24.14.87.87,0,0,0,.25-.07Z"/><path class="cls-2" d="M167.22,84.33c.37,0,.5-.26.64-.39a2,2,0,0,1-.81.2S167.09,84.25,167.22,84.33Z"/><path class="cls-2" d="M175.51,74l.46,0Z"/><path class="cls-2" d="M181,92.84a.34.34,0,0,0-.15.09S180.94,92.91,181,92.84Z"/><path class="cls-2" d="M190.65,92.47s0,0,0,0S190.7,92.36,190.65,92.47Z"/><path class="cls-2" d="M195.58,74.27v.27a.32.32,0,0,0,.15.06Z"/><path class="cls-2" d="M123.79,77.47l0,0C124.14,77.78,124,77.63,123.79,77.47Z"/><path class="cls-2" d="M177.15,33.45c1.1,1.21-2.24-1.4-.52.35C176.52,33.57,178.62,34.85,177.15,33.45Z"/><path class="cls-2" d="M178.78,75.09h0Z"/><path class="cls-2" d="M176.63,33.8h0l.18.18Z"/><path class="cls-2" d="M110,52.47a1.23,1.23,0,0,0-.28.23S109.77,52.66,110,52.47Z"/><path class="cls-2" d="M117.05,71.53l-.43-.48A5.65,5.65,0,0,0,117.05,71.53Z"/><path class="cls-2" d="M118.5,42.36a4.5,4.5,0,0,0,.75-.55.42.42,0,0,0-.14.06A2.37,2.37,0,0,1,118.5,42.36Z"/><path class="cls-2" d="M130.52,35.57l-.26,0-.4.17Z"/><path class="cls-2" d="M161.57,121a2.44,2.44,0,0,1,.69,0C162,120.92,163.87,120.15,161.57,121Z"/><path class="cls-2" d="M179.2,75a.72.72,0,0,1-.42.12l.47,0S179.3,75,179.2,75Z"/><path class="cls-2" d="M117.57,40.28c.62-.46,1.22-1,1.87-1.37A22.89,22.89,0,0,0,117.57,40.28Z"/><path class="cls-2" d="M98,55.49l-.15.48A2,2,0,0,0,98,55.49Z"/><path class="cls-2" d="M125.34,35.36a9.13,9.13,0,0,0,1.27-.38,1,1,0,0,0,.21-.18Z"/><path class="cls-2" d="M162.26,121Z"/><path class="cls-2" d="M174.49,113.4c-.8.66-1,.83-.94,1s.26.14.14.35c-2,1.5-1.11.43-1.92.76a23.22,23.22,0,0,1-3.11,2.4c-.11,0-.31.08-.12-.12a11.14,11.14,0,0,1-1.23.86c-.49.29-1.07.53-1.63.81-1.15.52-2.29,1.15-3.14,1.61a.82.82,0,0,1-.28,0c.37.07.48.22.47.37-.89.33-1.58.83-2,.72a2,2,0,0,0,.79-.46l-.9.44c-1,0,1.24-.58,1.15-.82-.89.36-1.83.87-2.76,1.2a21.21,21.21,0,0,1-2.56.77c-.38-.25,3.31-1,1.33-.79a21,21,0,0,0,2.22-.52c-1.8.08,1.31-.44-.37-.44-1.43.41-2.23.62-3,.89l-.58.19-.16.07c-.05,0-.08-.05-.13-.08l-.55-.59c-.62-.35,0,.36-.66,0-3.31-2.83-1.81-3-4.39-5a5.85,5.85,0,0,1-2.72-2.12l.82.28c-2.07-2.12-1.59-.81-3.6-3.19.49.29,1.73,1.56,1.45,1.21-1.21-1.63-1.16-.85-2.25-1.94v-.47c-2.27-2.19-4.9-4.48-7.42-6.91.21.07.71.42.2-.24-3.24-3-6.62-6.68-9.49-9.83l-1.36-.94c-.26-.27-.4-.59-.07-.34-1.09-1.25-.19.07-.84-.41-.68-.66-.76-1-.27-.64a77.56,77.56,0,0,1-8.23-7.92l.49.36c-1.62-1.78-2.34-1.48-3.72-3.25l.33.26c-3.59-3.77-7.85-7.65-10.35-10.77-.83-.24-3.51-3.78-4.16-3.6-.95-1.16-1.25-1.6-1.68-2.15-.21-.27-.45-.57-.81-1l-.3-.34L96,62.9c-.05,0,0,0-.05-.07l-.06-.11s0-.08.06-.15a2.67,2.67,0,0,0,.1-.53c0-.22,0-.44,0-.66a7.56,7.56,0,0,1,.18-1.61l.3.06A16,16,0,0,1,96.85,58l.69-.8L97.89,56c-.18.47-.49,1-.55.86a15.21,15.21,0,0,1,.53-1.51c.22-.5.5-1,.74-1.4a5.4,5.4,0,0,1,1-1.42c.15-.36.28-.73.44-1.09l.52-1,1-2.1a6,6,0,0,1-.54,1.44c1-2.32.46-.26,1.44-2.33-.24.21-.06-.24-.09-.32A18.55,18.55,0,0,0,104,45a13.86,13.86,0,0,1,1-1.26l.93-1.22-.06.42a52.4,52.4,0,0,1,7.86-7.92c-.59.38-.88.46-.9.35s.19-.42.64-.78l.57,0c.47-.6-1,.62,0-.48,1.2-.86,1-.3.41.29l1.35-1.15c.13,0-.17.3-.18.47.43-.66,2.71-1.4,3.4-2.26l.13,0c.81-.54,1.57-.9,2.23-1.26l1.85-1c1.18-.6,2.33-1.05,3.78-1.68-.06-.32,1.14-.65,2-1.14a67.15,67.15,0,0,1,7.59-1.54c1.93-.4.53-.32,1.4-.6.18.24,3-.16,1.53.21a82.09,82.09,0,0,1,8.58-.35c-.46-.16-1-.22-.7-.3.78,0,1.76.27,1.64.38h-.21a27.28,27.28,0,0,1,7.68,1.42c2.52.85,4.85,1.75,6.7,2.26l-.21-.06,1.88.63,1.85.73c1.62.84-1.07-.3.07.43a22.57,22.57,0,0,1,4.77,2.55c.67.43,1.29.89,1.93,1.36l2,1.42A58.44,58.44,0,0,0,180,39.42c.92.87,1.78,1.83,2.58,2.74.4.44.73.93,1.05,1.36.11.16.09.13.1.16v0a.08.08,0,0,1,0,.07l.21,0,.11.06c-.06.12-.33.07-.38.07s.27,0,.25.12l-.12.12-.37.34-.75.67-1.53,1.34-1.55,1.34-.42.35-.22.18-.17-.26-.09-.12-.29-.39c-.45-.59-.94-1.14-1.41-1.72s-1-1.1-1.49-1.65-1-1.08-1.56-1.59a43.06,43.06,0,0,0-7-5.53c-2.78-1.62-2-.16-5.4-2.24.4,0,.79.1,1.18.17a61.59,61.59,0,0,0-9.29-2.95,34.68,34.68,0,0,0-9.57-.84,2.2,2.2,0,0,1,1-.18c-1.33-.26-4.91.15-4.9.42-1,.09-.24-.15-.85-.18-1.36,0-3.25.83-4,.74-.13,0,.35-.15.59-.22-.41.16-1.42.29-2.18.55s-1.32.43-.88.45c-.58.13-1.14.28-1.67.44s-1,.4-1.54.6l-1.44.56c-.47.19-.91.4-1.35.55a16.32,16.32,0,0,1-2.22,1.19c-.8.42-1.5.8-1.56,1.09,0-.24-1,.17-2,.87-.52.34-1.07.73-1.55,1.09s-.87.77-1.13,1c.31-.42-1.11.68-.77.18a13,13,0,0,0-1.66,1.49c-.38.42-.56.69-.37.68a13.7,13.7,0,0,0-3.24,3.15,9.41,9.41,0,0,1-2.37,2.6c-.62,1-1.26,1.94-1.83,2.9s-1.08,1.94-1.57,2.91-.91,1.95-1.33,2.92l-1.32,3.42,1.22,1.17c-.12.08-.69-.41-1.45-1.13l1.14-2.87c.25-.71.44-1.23.27-1.24-.55,1.36-.75,2.13-1.5,4.13l1.09,1,.42.38.32.28,1.26,1.13c.85.78,1.72,1.62,2.69,2.64.72.81-.57-.29-.88-.49,3.09,2.82,5.69,5.74,8.49,8.2a3,3,0,0,1-.64-.47c.53.5,1.15,1.25,1.24,1.05l-.54-.47c-.62-1,2.49,1.62,2.7,1.6-1.3-.46,2.49,2.7.57,1.83.37.31.86.67.88.5.48.53.58.75,0,.35,1.94,1.77,1.43,1,3.11,2.65-.08.06-.44-.25-.7-.34a19.1,19.1,0,0,1,3.34,2.91c-.12,0,0,.18-.44-.25,2.47,2.42,4.53,3.8,7.07,6.61-1.09-.49.81,1,.69,1.42l1.52,1.36-.45-.71c1.26,1.27,2.57,2.19,3.56,3.36l-1-.83L140,96.6l-1.24-1.44c1.42,1.14.2-.47,1.81,1.28-.37-.32,1.25,1.26,1.76,2.08h0a13.86,13.86,0,0,1,2.31,2.1c.16.32-.49.09-.39.31.84.39,3,2.89,4,3.43-.31-.2-.46-.08-.41,0l.7.34c.53.64.58.75.38.77,1.72,1.79-.23-.9,1.72,1.33a5.1,5.1,0,0,1-.5-.35c2,2.17,4.16,3.93,6,5.94.3.84-1.75-1.61-1.32-.74.72.69,1.41,1.34,2.2,2.07l.81.75.2.19c.06.07.16,0,.24-.06l.52-.21,1.61-.7c.94-.39,1.83-.91,2.73-1.34s1.74-1,2.6-1.4l-.65.31c.11-.35.76-.64,1.56-1,.4-.2.85-.41,1.29-.65a7.67,7.67,0,0,0,1.2-.9c-.37.31-.34.61-.27.48a31.34,31.34,0,0,0,6.81-6.44l-.24.45a34.44,34.44,0,0,0,3.73-4.4c.21-.47.71-1.28.24-.9a20.15,20.15,0,0,0,3.75-6.41l2.49-7c-.17.66-.31,1.64-.16,1.08l.6-2.49c.17-.29-.23-.16-.42-.18H185l-1.35,0c.34.23.66.14,1.49.32a17.32,17.32,0,0,1-2.83.25c1.73-.16,0-.38-.77-.5.13.07-.13.14-.06.22-2-.41-.34.46-3.1.18l.15-.12a30.52,30.52,0,0,1-3.09.19c-.46-.27,1.1-.12,1.17-.34-1.56,0-3.08.5-4.49.24.66-.08,1.61-.08,2.28-.15a12,12,0,0,0-2.86-.29h.11L169,82.81l.67.08a8.82,8.82,0,0,1-3,.38c-.54,0-1.1,0-1.69,0a12.85,12.85,0,0,0-1.8.19c1.36-.22,1.3-.28,1.2-.33s-.46-.08-.31-.23l-.37-.09c.06-.32.12-.52.17-.46a.82.82,0,0,1-.07-.39c0-.19,0-.53,0-.8a7.28,7.28,0,0,0-.12-2.11c.1-.08,0-1.33.25-1-.07-1.62-.17.38-.29.25a12.59,12.59,0,0,1-.08-1.88v-.5l0-.32.05-.6.76.06h1.19a20.78,20.78,0,0,0,2.81-.15c3.09-.19,3.66-.52,6.53-.68,1,.16-.79.36-.79.36a23.56,23.56,0,0,0,4.2,0c-.29.09,0,.16.46.27,1.18,0,.79-.36,2.35-.21a5.92,5.92,0,0,1-1.18.39c1.39-.09,2.76-.27,4.2-.36.39.17-.86.26-1.37.37a24.65,24.65,0,0,0,4.69-.43l-1-.09c.59,0,.31.23-.13.28-1.39.21-2-.1-2.08-.19l1-.07c-1.06-.57-4.12.1-6.19.06l.86-.41-2.11.34c-.45-.11-.76-.34.26-.4-1.48-.21-1.31.15-2.59-.08-.14,0-.07-.06.06-.07l-1.45.12c.28-.09-.24-.29.65-.23-2.6-.24-4.19.31-5.17,0l.22,0c-3.6.14-.35.3-3,.66l-1.82-.75-.35.3c-.41,0-1.27,0-1.19-.15-.77.1-.63.13-.46.17s.4.06.08.16l-.12,0c-.25,1.88.14,4.88-.34,5.29.23.64.18-1.71.34.2-.52.58.09,2.09-.15,4.05-.27-.29-.13-2.49-.37-.2a1.64,1.64,0,0,1,.13.44,8.11,8.11,0,0,1,1.22-.06c.42,0,.92,0,1.25.08a16.32,16.32,0,0,0,2.12.12c.06-.37,3-.16,5.31-.28-.15.13,4.35.2,6.5.33l-.06.07c.42-.37,2.64-.3,4.25-.38-.06.22-.35.31-1.23.41h1.43a3.34,3.34,0,0,1,1.27-.22,5.12,5.12,0,0,0-.53.28h.25s0,0,0,0l0,.11-.08.44c0,.32-.11.66-.17,1a17.87,17.87,0,0,1-1.16,3.29c.18.24,1.44-1.66.56,1-.17,0-.42,0-.21-.64a5.83,5.83,0,0,1-.44,1.23l.2-1.1c-.54,1,0,.65-.44,1.51-.17-.1-.43.56-.51.38a5.38,5.38,0,0,0,.49-1.07A11.21,11.21,0,0,1,181,92.84c.13,0,.26.14-.1.82-1,1.75-.54.48-1.2,1.44-.1.5-.93,1.47-.7,1.67a1.66,1.66,0,0,1-.67.64c-.23.47-1,1.43-1.47,2.21s-.94,1.27-.45.93l.19-.19-.1.14h0c-1.92,2.85-4.91,5.08-7.52,7.17l-.06-.08a25.75,25.75,0,0,1-2.55,1.87c-.86.61-1.7,1.11-2.28,1.54s-1.32.51-1.15.29l-1.51.8a9.66,9.66,0,0,1-2.07.78c1.37-.72-.54.07,1.42-.7a11.88,11.88,0,0,1-1.19.4l-.8.26-.24.09-.13,0-.11-.09-.26-.2a1.49,1.49,0,0,1-.23-.18l-.3-.24c.7.35-.85-1.3-1.58-1.92l.87,1.13c-.79-.74-1.44-1.42-2.11-2.12l.61.14c-2.64-3.21-5.76-4.78-7.5-7.49-.94-.6,1.47,1.71.59,1.21-1.31-1.38-2.38-3.11-2.8-3.54-1.71-2-2.06-1.37-3.89-3.38.16.33.17.78-1.35-.58-1.31-1.37-1.3-2-.38-1.22.33.32.45.5.41.51.47.41,1.07.94.63.32l-.26-.09c-.58-.76-2.44-2.6-1.86-2.3-1.1-.93-.58-.3.13.5-1.6-1.84-2.69-2.7-4.38-4.55.24.33.4.68.12.4-2.5-2.7-1.31-1-3.11-2.71-.87-1.13.67.05-1.22-1.62-1-1.17,0-.45.5-.09a32.37,32.37,0,0,1-3.81-4.08l.92.79c-.55-.47-1-.89-1.39-1.32l.31.66c-.47-.53-.89-1-.81-1-.63-.4.11.68-1.06-.19-.58-.76-2.12-1.94-2.13-2.4,2,2.18,0-.45,1.8,1.29a15.23,15.23,0,0,1-1.25-1.27c0-.1.11,0,.26.15-1.8-2.21-1.17-.67-3.25-2.76.39.14-.24-.72-.61-1,.84.84.2.61-.67-.06a20.24,20.24,0,0,0-2.21-2.09l.75.85a11.78,11.78,0,0,1-2-1.72c0-.18.91.77.62.4-1.25-.81-2.1-2.56-3.69-3.85-.58-.75.17-.3-.36-.95-1.77-1.45-1.57-1.91-3.4-3.48.32.66.44.71-.92-.32L111,65.12l-2-1.54c.83.84,1.88,1.67,2.35,2.2-1-.71-.86-.67-.6-.12-.89-1.41-2.42-2.14-3.58-3.64l.45-.38c-.33-.4-.67-.77-1-1.11l-.26-.26-.09-.08L106,60l0-.19a1.25,1.25,0,0,1,.09-.34l.43-1.25a19.21,19.21,0,0,1,1.31-2.75l-.61,1a13.09,13.09,0,0,1,1.51-3c.12.19.55-.4.91-.76-.2-.06,1.49-2.15,1.36-2.65a15.75,15.75,0,0,1,1.19-1.12,21.91,21.91,0,0,0,1.84-2.5A9.6,9.6,0,0,1,116,44.09c-.46.74.53-.06-.68,1.37.62-.69,1.32-1.18,1.22-1.3A8.13,8.13,0,0,0,117.69,43a5.89,5.89,0,0,1,1.42-1.16,3.72,3.72,0,0,1,1.08-1.19c.11,0,0,.08,0,.08s1.3-1,.41-.7a15.92,15.92,0,0,0,2.25-1.18c.83-.43,1.7-.92,2.56-1.41s1.77-.86,2.58-1.22a9.46,9.46,0,0,1,2.22-.64c.48-.19,1-.42,1.49-.59l1.58-.49a22.62,22.62,0,0,1,3-.77c-.1.08,0,.1-.33.15,2.53-.34,1.45-.86,4.4-1,1.51.14-1.53.36-.59.37.45.55,3.5-.39,5.46,0l-.47,0c1.47.26,3.65-.14,6.07.34,0,0-.13,0,0,.09a17.14,17.14,0,0,1,3.35.31A35.56,35.56,0,0,1,158,35c-.78,0-1.06-.23-.72.16,1,.32-.16-.5,1.87.14.6.39,2,1.1,2,1.42L159.3,36a4.88,4.88,0,0,0,1.61.82,12,12,0,0,1,1.67.7l-.19.08c2.71,1.34,3,1,5.68,2.87l-.21-.3c1.67.76,1.13,1,2.69,1.92l.17.65a33.9,33.9,0,0,1,4.87,4c-.5-.36-1.25-.93-2-1.55S172,44,171.42,43.51l1.87,1.66a11.55,11.55,0,0,0,1.59,1.35,7.46,7.46,0,0,1-1.13-1,12.73,12.73,0,0,1,2,1.57c.35.34.7.7,1.06,1.08s.68.82,1.15,1.41c-.21.07.07.61.71,1.52.49-.37,1.14-.91,1.85-1.51L182,48.26a12.94,12.94,0,0,1,2.62-1.86l.43-.42.6-.56,1.44-1.28-1.29-1.63-.9-1.17c-.53-.7-1.13-1.37-1.7-2.08a39.59,39.59,0,0,0-4-4.1c.91,1.64-1.08-1-1.26-.28a8.35,8.35,0,0,1-1.31-1.08c-.81-.85-1.71-1.59-2.58-2.38-.58-.64,1,.53,1,.36-2-1.53-.71-.85-2-1.91.16.38-.91-.24-2.12-1,.56.4,1.06.88,1.59,1.31a16,16,0,0,1-2.8-1.77,9.47,9.47,0,0,0-1.06-.77,14.38,14.38,0,0,0-1.88-.85l1.11.33c-.43-.18-1-.45-1.71-.77s-1.5-.6-2.29-.91a19,19,0,0,0-2.34-.74,8.6,8.6,0,0,0-1.83-.33c-.29-.15-.66-.43.14-.25a37.69,37.69,0,0,0-6.84-1.4c-2.31-.28-4.5-.39-6.19-.62l.34-.14a9.91,9.91,0,0,1-2.46,0c.05-.06.33-.14,0-.16a25.14,25.14,0,0,1-3.26.3l.92-.21a21.58,21.58,0,0,0-2.9.14c-.86.15-1.65.31-2.42.49-1.53.29-2.92.82-4.65,1.26,0-.2-.91-.22-1.94,0s-2.27.56-3.08.78l0-.08a13,13,0,0,0-1.7.63l-1.57.69-1.48.68c-.46.25-.91.53-1.36.79-.9.54-1.79,1-2.68,1.62l-2.7,1.88a12.93,12.93,0,0,0-2.41,1.43,27,27,0,0,0-3,2.25c-2,1.69-4,3.77-5.68,5.4.51-.49.19.32-.29,1-.76.79-1.64,2.5-1.86,2.13l.25-.3c-.84.39-2,2.33-3,3.76l.3.52A26.42,26.42,0,0,0,98,50.12c-.64,1.2-1.17,2.53-1.72,3.77S95.45,56.4,95,57.43a22.76,22.76,0,0,1-1,2.46c-.08.55-.21,1.15-.34,1.75l-.27,1.24-.08.35,0,.16s.08.09.12.13l.52.45-.33.07,2.91,3c.84.85,1.76,1.76,3.08,3l-.67-.39c1.45,1.48,2.43,1.27,3.79,2.61l.11.71c2.56,2.55,4.89,5.4,7.69,7.66-.09,0-.25,0-.67-.39,1.19,1.21,4.45,4.86,4.42,4-.23.3,2.62,2.67,4.12,3.93l-.41,0a16.2,16.2,0,0,1,3.22,2.45c.36.41.18.49-.28-.07,1.18,1.39,1.18.81,2.64,2.48l-.71-.46A7.73,7.73,0,0,0,125,94.37a10.81,10.81,0,0,1,2.47,2.93,5.56,5.56,0,0,1,1.89,1.48c0,.18-.29-.07-.45-.19,2.08,2.35,3.52,3.06,4.84,4.78,0,.09,0,.22.14.37-1.75-1.76-3.15-3.19-3-3.07-.18.18,1.21,1.63-.17.76a38.94,38.94,0,0,1,4.82,4.12,1.07,1.07,0,0,1,.12.24l-.16-.12a7,7,0,0,0,.9.85c.41.47.67.77,1.09,1.2a15.2,15.2,0,0,0,2.25,2.42c.14-.26,1,.7.33-.33.1.13-.16-.11-.64-.57a3.34,3.34,0,0,0-.32-.28l.07,0-1.78-1.75a8.21,8.21,0,0,1,2,1.85c.49.24,1,.51,1.3.67.7,1.24,2.41,3.26,2.5,3.69,2.27,2,5.17,5,6.9,6a2.3,2.3,0,0,1,.77,1.1c-.39-.32-.81-.75-1-.89,1.32,1.14,3.67,3.61,4.23,3.64a4.39,4.39,0,0,1,.36.46.86.86,0,0,1,.14.21c0,.07-.16,0-.25-.1s-.16-.09-.07,0l.36.38.37.36.24.23c0,.07.09.06.16,0l.19-.06-.3.14a1.49,1.49,0,0,1-.24-.14c.16.33.46.17.72.12l.79-.17,1.06-.24c.67-.17,1.32-.35,1.94-.55a35.52,35.52,0,0,0,3.5-1.52c1.17-.48,2.25-1.2,3.49-1.78s2.54-1.29,4.08-1.94a2.87,2.87,0,0,1-.75.28,36.6,36.6,0,0,0,4.89-3c.81-.53,1.51-1.21,2.27-1.81a28.77,28.77,0,0,0,2.19-1.93l2.07-2c.7-.68,1.29-1.44,1.95-2.14,1.34-1.38,2.45-2.92,3.7-4.33a10.74,10.74,0,0,0,1.71-3.23l.5-.24a21.18,21.18,0,0,0,.77-2.11c.6-1.45,1.42-2.54,2.08-3.86.36-.64.71-1.32,1.05-2.08a13.06,13.06,0,0,0,.74-2.61l-.35.42c.23-.67.55-1.75.8-2.64s.37-1.58.46-1.44a1.91,1.91,0,0,1,.12-1h.17l.24-1.74.1-1.76c.24-1.33.38-1.21.53-1.24s.16-.07.25-.37a7.08,7.08,0,0,0,.27-1.84c0-1.5-.27-4.23-.4-3.67s-.17,1.51-.33,1.55l0-1.34c-.46-.25-.89-1.24-1.36,1.95l.18,2.25-.32.7a14.73,14.73,0,0,0,.14-1.88,8.5,8.5,0,0,0-.13,2.5,2.16,2.16,0,0,0-.37.89c0,.74.12,1.5.13,2.25-.23.22-.14-1-.56.39,0,1,.62-.89.38.8-.44,1-.54.66-.64,1.93-.15.14-.17-.14-.11-.63,0,1.13-.71,2.85-.65,3.48a13.81,13.81,0,0,0-.81,2.14c-.31.73-.58,1.31-.76,1.18a16.32,16.32,0,0,1-.83,2.9c.38-1.89-1.8,3.4-2.06,2.69-.26,1.43-2.37,4.39-3.7,6.46a1.71,1.71,0,0,1,.3-.56,12.64,12.64,0,0,1-1.85,1.94c.19.38-1.17,2-1.77,3.1-.75.46-.65.2-.44-.16s.47-.86.17-.78c.34.2-1.86,2.28-1.26,2.07-1.1.73-.89.7-1.59.92.18.54-.84.86-1.48,1.76-1.61,1-.66,0-2.17,1.35-.45.22-.32,0-.08-.2S174.49,113.4,174.49,113.4ZM136.36,104h0l.75.72Zm-3-3,1.28,1.3c0,.17-.14.13-.44-.17C134.43,102.23,133.77,101.49,133.38,101Zm4.92,7.67c-.5-.44-.62-.64-.65-.74l.85.8.08,0A.6.6,0,0,1,138.3,108.65Z"/><path class="cls-2" d="M139.4,109.24a1.56,1.56,0,0,1,.21.18l-.23-.33-.23-.1Z"/><path class="cls-2" d="M176.42,100.55l-.06.06.15-.11Z"/><polygon class="cls-2" points="96.65 59.85 96.58 59.83 96.55 60.2 96.65 59.85"/><path class="cls-2" d="M181.5,83a.88.88,0,0,0-.3-.08A1,1,0,0,0,181.5,83Z"/><path class="cls-2" d="M171.5,82.94l-1.42-.1C170.69,82.9,171.14,82.93,171.5,82.94Z"/><path class="cls-2" d="M164.13,82.8a1,1,0,0,0-.14.12h0Z"/><path class="cls-2" d="M116.1,73.24l-.22-.2C115.35,72.58,115.7,72.9,116.1,73.24Z"/><path class="cls-2" d="M142.3,98.51c-.31-.23-.61-.47-.92-.73C141.82,98.25,142.18,98.61,142.3,98.51Z"/><path class="cls-2" d="M117.36,40.43h0l.21-.16Z"/><path class="cls-2" d="M140.19,96.58a10.4,10.4,0,0,0,1.19,1.2A15,15,0,0,0,140.19,96.58Z"/><path class="cls-2" d="M186.07,75.15h.37s0,0,0,0Z"/><path class="cls-2" d="M186.48,75.12l.42,0A1.34,1.34,0,0,0,186.48,75.12Z"/><path class="cls-2" d="M187.76,75l-.86.07A2.79,2.79,0,0,0,187.76,75Z"/><path class="cls-2" d="M175.89,75l-.12.1A.18.18,0,0,0,175.89,75Z"/><path class="cls-2" d="M172.79,75.05a26.29,26.29,0,0,0,2.88.15l.1-.08C175.28,75.27,173.49,74.88,172.79,75.05Z"/><path class="cls-2" d="M162.42,77.3l.08-2.88c-.11.46-.25,1.31-.28-.39-.08,1.1-.11,1.69-.1,1.88s0,.06.09,0,.11-.19.15,0A7,7,0,0,1,162.42,77.3Z"/><path class="cls-2" d="M164.7,84.19l-.49,0-.27,0c-.1,0-.05,0,.07.06l.46.06c.13,0,.18,0,.17,0C165.52,84.31,165.74,84.29,164.7,84.19Z"/><path class="cls-2" d="M162.38,111.44l0-.29C161.46,111.63,162.43,111.25,162.38,111.44Z"/><polygon class="cls-2" points="153.3 109.87 153.92 110.72 154.44 110.91 153.3 109.87"/><polygon class="cls-2" points="149.94 103.94 150.3 104.25 148.97 103.05 149.94 103.94"/><path class="cls-2" d="M128.32,36.69l-.41-.16C127.28,36.89,127.3,37.27,128.32,36.69Z"/><path class="cls-2" d="M167.67,40.38a5.6,5.6,0,0,0,1.83,1.46C168.76,41.27,168.08,40.63,167.67,40.38Z"/><polygon class="cls-2" points="98.75 48.62 99.09 47.81 98.35 49.28 98.75 48.62"/></g></g></svg>