<svg xmlns="http://www.w3.org/2000/svg" xmlns:xlink="http://www.w3.org/1999/xlink" viewBox="0 0 352.85 352.85"><defs><linearGradient id="a" x1="32.93" y1="176.43" x2="319.93" y2="176.43" gradientUnits="userSpaceOnUse"><stop offset="0" stop-color="#ff941f"/><stop offset="0.07" stop-color="#fe8b1f"/><stop offset="0.29" stop-color="#f9701d"/><stop offset="0.52" stop-color="#f65d1d"/><stop offset="0.75" stop-color="#f5521c"/><stop offset="1" stop-color="#f44e1c"/></linearGradient></defs><title>LOGO</title><rect x="32.93" y="32.93" width="287" height="287" rx="30.78" transform="translate(74.97 -51.52) rotate(21.01)" style="fill:url(#a)"/><rect x="32.93" y="32.93" width="287" height="287" rx="30.78" style="fill:#222942"/><path d="M201.28,192H168.67c2.74,8.42,5.33,16.39,8.2,25.18h-5.68c-14,0-28,.09-42-.07-3,0-4.39,1-5.27,3.82-2.35,7.62-4.86,15.2-7.63,22.69-.52,1.41-2.51,3.19-3.87,3.23-9.31.28-18.64.15-28.56.15.49-1.71.78-3.08,1.27-4.38q24.4-64.65,48.76-129.32c1.29-3.45,3-4.47,6.5-4.38,9.49.23,19-.07,28.49.22a6.06,6.06,0,0,1,4.47,3.16c9.29,25.65,18.35,51.37,27.44,77.09A20.4,20.4,0,0,1,201.28,192Zm-33.09.41c-5.79-17.13-11.36-33.59-16.93-50.05l-1.08.24-16.55,49.81Z" style="fill:#fff"/><path d="M176.84,217.89c8.91,0,17.23.06,25.55,0a50.74,50.74,0,0,0,8.43-.78c8-1.44,12.37-5.89,13.17-14.05.6-6.1.54-12.27.55-18.41q.09-36,0-72v-6.31h33.07a31.08,31.08,0,0,1,.43,3.58c0,31.33,0,62.66-.09,94a60.55,60.55,0,0,1-1.41,12.87c-3.52,15.86-15.68,27-33,29-11.37,1.28-22.93.94-34.41,1.16a3.83,3.83,0,0,1-3-1.76C183,236.23,180,227.27,176.84,217.89Z" style="fill:#fff"/></svg>