<svg xmlns="http://www.w3.org/2000/svg" xmlns:xlink="http://www.w3.org/1999/xlink" viewBox="0 0 404.57 360.88"><defs><clipPath id="a" transform="translate(-0.16)"><path d="M369.85,58.2v43a5,5,0,0,1-5,5h-40.2L327,296.65a9.56,9.56,0,0,1-9.56,9.55h-13a9.56,9.56,0,0,1-9.55-9.55l2.32-190.45H228a2.17,2.17,0,0,1-2.17-2.17V94.32A2.17,2.17,0,0,1,228,92.16c28-.9,51-16.13,55.91-36a3.88,3.88,0,0,1,3.78-2.93h10.16l0-2.44a5.56,5.56,0,0,1,5.56-5.56h15A5.56,5.56,0,0,1,324,50.76l0,2.44h40.85A5,5,0,0,1,369.85,58.2Z" style="fill:none"/></clipPath><clipPath id="b" transform="translate(-0.16)"><path d="M165.92,127.91l4,161.22a17.65,17.65,0,1,1-35.28,0l4-161.26a45.53,45.53,0,0,1-31.53-38.8c-1.68-17.38,6.56-33.6,19.78-43.59a2.87,2.87,0,0,1,4.59,2.3V86a9.2,9.2,0,0,0,9.2,9.21h23.25a9.21,9.21,0,0,0,9.2-9.21V47.79a2.87,2.87,0,0,1,4.61-2.29c12.05,9.12,20,23.44,20,39.09A45.42,45.42,0,0,1,165.92,127.91Z" style="fill:none"/></clipPath></defs><title>tools_5</title><g style="clip-path:url(#a)"><path d="M279.29,109.9C282,107.15,293,96.51,297.86,91.33s14.41-13.28,18.06-16.94,14.24-16.5,17.75-19.69,7.85-7.36,10-9.49,3.12-.85,1.14,1.13S332.35,57.64,325.15,66s-18.31,16.69-27.64,26.84S282.4,109.05,280.42,111,277.77,111.42,279.29,109.9Z" transform="translate(-0.16)" style="fill:#fff;stroke:#fff;stroke-miterlimit:10;stroke-width:0.75px"/><path d="M266.83,109.35c2.83-2.82,14.11-13.78,19.12-19.11s14.82-13.69,18.58-17.46,14.7-17,18.31-20.24,8.07-7.59,10.27-9.79,3.17-.9,1.13,1.14S321.45,55.54,314,64.1,295.2,81.31,285.57,91.74,270,108.45,268,110.49,265.26,110.92,266.83,109.35Z" transform="translate(-0.16)" style="fill:#fff;stroke:#fff;stroke-miterlimit:10;stroke-width:0.75px"/><path d="M229.87,106.31c2.91-2.9,14.51-14.18,19.67-19.66s15.23-14.11,19.1-18,15.15-17.42,18.86-20.8,8.3-7.82,10.56-10.08,3.23-1,1.13,1.13-13.14,12-20.79,20.8-19.35,17.73-29.26,28.45-16,17.17-18.14,19.27S228.26,107.93,229.87,106.31Z" transform="translate(-0.16)" style="fill:#fff;stroke:#fff;stroke-miterlimit:10;stroke-width:0.75px"/><path d="M218.35,104.83c2.87-2.86,14.31-14,19.39-19.39s15-13.9,18.85-17.71,14.92-17.19,18.58-20.52,8.19-7.71,10.41-9.93,3.2-.94,1.14,1.13-13,11.83-20.51,20.51-19.09,17.47-28.85,28-15.81,16.94-17.88,19S216.76,106.42,218.35,104.83Z" transform="translate(-0.16)" style="fill:#fff;stroke:#fff;stroke-miterlimit:10;stroke-width:0.75px"/><path d="M258.08,103.43c12.55-13.69,21.8-21.43,27-27s20.4-14.74,24.54-24.54,13.76-14.14,13.76-14.14a199.55,199.55,0,0,1-14.55,19.08c-7,7.76-14.58,15-16.32,19s-11.75,9.11-17.65,15.39S258.08,103.43,258.08,103.43Z" transform="translate(-0.16)" style="fill:#fff"/><path d="M244.87,105.31c2.91-2.9,14.51-14.18,19.67-19.66s15.23-14.11,19.1-18,15.15-17.42,18.86-20.8,8.3-7.82,10.56-10.08,3.23-1,1.13,1.13-13.14,12-20.79,20.8-19.35,17.73-29.26,28.45-16,17.17-18.14,19.27S243.26,106.93,244.87,105.31Z" transform="translate(-0.16)" style="fill:#fff;stroke:#fff;stroke-miterlimit:10;stroke-width:0.75px"/><path d="M250.29,178.9c2.74-2.75,13.71-13.39,18.57-18.57s14.41-13.28,18.06-16.94,14.24-16.5,17.75-19.69,7.85-7.36,10-9.49,3.12-.85,1.14,1.13-12.44,11.3-19.64,19.63-18.31,16.69-27.64,26.84S253.4,178.05,251.42,180,248.77,180.42,250.29,178.9Z" transform="translate(-0.16)" style="fill:#fff;stroke:#fff;stroke-miterlimit:10;stroke-width:0.75px"/><path d="M335.83,119.35c2.83-2.82,14.11-13.78,19.12-19.11s14.82-13.69,18.58-17.46,14.7-17,18.31-20.24,8.07-7.59,10.27-9.79,3.17-.9,1.13,1.14S390.45,65.54,383,74.1s-18.83,17.21-28.46,27.64S339,118.45,337,120.49,334.26,120.92,335.83,119.35Z" transform="translate(-0.16)" style="fill:#fff;stroke:#fff;stroke-miterlimit:10;stroke-width:0.75px"/><path d="M298.87,116.31c2.91-2.9,14.51-14.18,19.67-19.66s15.23-14.11,19.1-18,15.15-17.42,18.86-20.8,8.3-7.82,10.56-10.08,3.23-1,1.13,1.13-13.14,12-20.79,20.8-19.35,17.73-29.26,28.45-16,17.17-18.14,19.27S297.26,117.93,298.87,116.31Z" transform="translate(-0.16)" style="fill:#fff;stroke:#fff;stroke-miterlimit:10;stroke-width:0.75px"/><path d="M287.35,114.83c2.87-2.86,14.31-14,19.39-19.39s15-13.9,18.85-17.71,14.92-17.19,18.58-20.52,8.19-7.71,10.41-9.93,3.2-.94,1.14,1.13-13,11.83-20.51,20.51-19.09,17.47-28.85,28-15.81,16.94-17.88,19S285.76,116.42,287.35,114.83Z" transform="translate(-0.16)" style="fill:#fff;stroke:#fff;stroke-miterlimit:10;stroke-width:0.75px"/><path d="M288.29,192.9c2.74-2.75,13.71-13.39,18.57-18.57s14.41-13.28,18.06-16.94,14.24-16.5,17.75-19.69,7.85-7.36,10-9.49,3.12-.85,1.14,1.13-12.44,11.3-19.64,19.63-18.31,16.69-27.64,26.84S291.4,192.05,289.42,194,286.77,194.42,288.29,192.9Z" transform="translate(-0.16)" style="fill:#fff;stroke:#fff;stroke-miterlimit:10;stroke-width:0.75px"/><path d="M275.83,192.35c2.83-2.82,14.11-13.78,19.12-19.11s14.82-13.69,18.58-17.46,14.7-16.95,18.31-20.24,8.07-7.59,10.27-9.79,3.17-.9,1.13,1.14S330.45,138.54,323,147.1s-18.83,17.21-28.46,27.64S279,191.45,277,193.49,274.26,193.92,275.83,192.35Z" transform="translate(-0.16)" style="fill:#fff;stroke:#fff;stroke-miterlimit:10;stroke-width:0.75px"/><path d="M267.08,186.43c12.55-13.69,21.8-21.43,27-27s20.4-14.74,24.54-24.54,13.76-14.14,13.76-14.14a199.55,199.55,0,0,1-14.55,19.08c-7,7.76-14.58,15-16.32,19s-11.75,9.11-17.65,15.39S267.08,186.43,267.08,186.43Z" transform="translate(-0.16)" style="fill:#fff"/><path d="M253.87,188.31c2.91-2.9,14.51-14.18,19.67-19.66s15.23-14.11,19.1-18,15.15-17.42,18.86-20.8,8.3-7.82,10.56-10.08,3.23-1,1.13,1.13-13.14,12-20.79,20.8-19.35,17.73-29.26,28.45-16,17.17-18.14,19.27S252.26,189.93,253.87,188.31Z" transform="translate(-0.16)" style="fill:#fff;stroke:#fff;stroke-miterlimit:10;stroke-width:0.75px"/><path d="M296.35,197.83c2.87-2.86,14.31-14,19.39-19.39s15-13.9,18.85-17.71,14.92-17.19,18.58-20.52,8.19-7.71,10.41-9.93,3.2-.94,1.14,1.13-13,11.83-20.51,20.51-19.09,17.47-28.85,28-15.81,16.94-17.88,19S294.76,199.42,296.35,197.83Z" transform="translate(-0.16)" style="fill:#fff;stroke:#fff;stroke-miterlimit:10;stroke-width:0.75px"/><path d="M264.29,243.9c2.74-2.75,13.71-13.39,18.57-18.57s14.41-13.28,18.06-16.94,14.24-16.5,17.75-19.69,7.85-7.36,10-9.49,3.12-.85,1.14,1.13-12.44,11.3-19.64,19.63-18.31,16.69-27.64,26.84S267.4,243.05,265.42,245,262.77,245.42,264.29,243.9Z" transform="translate(-0.16)" style="fill:#fff;stroke:#fff;stroke-miterlimit:10;stroke-width:0.75px"/><path d="M284.29,275.9c2.74-2.75,13.71-13.39,18.57-18.57s14.41-13.28,18.06-16.94,14.24-16.5,17.75-19.69,7.85-7.36,10-9.49,3.12-.85,1.14,1.13-12.44,11.3-19.64,19.63-18.31,16.69-27.64,26.84S287.4,275.05,285.42,277,282.77,277.42,284.29,275.9Z" transform="translate(-0.16)" style="fill:#fff;stroke:#fff;stroke-miterlimit:10;stroke-width:0.75px"/><path d="M289.83,257.35c2.83-2.82,14.11-13.78,19.12-19.11s14.82-13.69,18.58-17.46,14.7-16.95,18.31-20.24,8.07-7.59,10.27-9.79,3.17-.9,1.13,1.14S344.45,203.54,337,212.1s-18.83,17.21-28.46,27.64S293,256.45,291,258.49,288.26,258.92,289.83,257.35Z" transform="translate(-0.16)" style="fill:#fff;stroke:#fff;stroke-miterlimit:10;stroke-width:0.75px"/><path d="M281.08,251.43c12.55-13.69,21.8-21.43,27-27s20.4-14.74,24.54-24.54,13.76-14.14,13.76-14.14a199.55,199.55,0,0,1-14.55,19.08c-7,7.76-14.58,15-16.32,19s-11.75,9.11-17.65,15.39S281.08,251.43,281.08,251.43Z" transform="translate(-0.16)" style="fill:#fff"/><path d="M267.87,253.31c2.91-2.9,14.51-14.18,19.67-19.66s15.23-14.11,19.1-18,15.15-17.42,18.86-20.8,8.3-7.82,10.56-10.08,3.23-1,1.13,1.13-13.14,12-20.79,20.8-19.35,17.73-29.26,28.45-16,17.17-18.14,19.27S266.26,254.93,267.87,253.31Z" transform="translate(-0.16)" style="fill:#fff;stroke:#fff;stroke-miterlimit:10;stroke-width:0.75px"/><path d="M292.35,280.83c2.87-2.86,14.31-14,19.39-19.39s15-13.9,18.85-17.71,14.92-17.19,18.58-20.52,8.19-7.71,10.41-9.93,3.2-.94,1.14,1.13-13,11.83-20.51,20.51-19.09,17.47-28.85,28-15.81,16.94-17.88,19S290.76,282.42,292.35,280.83Z" transform="translate(-0.16)" style="fill:#fff;stroke:#fff;stroke-miterlimit:10;stroke-width:0.75px"/><path d="M284.29,327.9c2.74-2.75,13.71-13.39,18.57-18.57s14.41-13.28,18.06-16.94,14.24-16.5,17.75-19.69,7.85-7.36,10-9.49,3.12-.85,1.14,1.13-12.44,11.3-19.64,19.63-18.31,16.69-27.64,26.84S287.4,327.05,285.42,329,282.77,329.42,284.29,327.9Z" transform="translate(-0.16)" style="fill:#fff;stroke:#fff;stroke-miterlimit:10;stroke-width:0.75px"/><path d="M289.83,309.35c2.83-2.82,14.11-13.78,19.12-19.11s14.82-13.69,18.58-17.46,14.7-16.95,18.31-20.24,8.07-7.59,10.27-9.79,3.17-.9,1.13,1.14S344.45,255.54,337,264.1s-18.83,17.21-28.46,27.64S293,308.45,291,310.49,288.26,310.92,289.83,309.35Z" transform="translate(-0.16)" style="fill:#fff;stroke:#fff;stroke-miterlimit:10;stroke-width:0.75px"/><path d="M281.08,303.43c12.55-13.69,21.8-21.43,27-27s20.4-14.74,24.54-24.54,13.76-14.14,13.76-14.14a199.55,199.55,0,0,1-14.55,19.08c-7,7.76-14.58,15-16.32,19s-11.75,9.11-17.65,15.39S281.08,303.43,281.08,303.43Z" transform="translate(-0.16)" style="fill:#fff"/><path d="M292.35,332.83c2.87-2.86,14.31-14,19.39-19.39s15-13.9,18.85-17.71,14.92-17.19,18.58-20.52,8.19-7.71,10.41-9.93,3.2-.94,1.14,1.13-13,11.83-20.51,20.51-19.09,17.47-28.85,28-15.81,16.94-17.88,19S290.76,334.42,292.35,332.83Z" transform="translate(-0.16)" style="fill:#fff;stroke:#fff;stroke-miterlimit:10;stroke-width:0.75px"/><path d="M327.08,113.43c12.55-13.69,21.8-21.43,27-27s20.4-14.74,24.54-24.54,13.76-14.14,13.76-14.14a199.55,199.55,0,0,1-14.55,19.08c-7,7.76-14.58,15-16.32,19s-11.75,9.11-17.65,15.39S327.08,113.43,327.08,113.43Z" transform="translate(-0.16)" style="fill:#fff"/><path d="M313.87,115.31c2.91-2.9,14.51-14.18,19.67-19.66s15.23-14.11,19.1-18,15.15-17.42,18.86-20.8,8.3-7.82,10.56-10.08,3.23-1,1.13,1.13-13.14,12-20.79,20.8-19.35,17.73-29.26,28.45-16,17.17-18.14,19.27S312.26,116.93,313.87,115.31Z" transform="translate(-0.16)" style="fill:#fff;stroke:#fff;stroke-miterlimit:10;stroke-width:0.75px"/></g><path d="M370.86,74c0,5.57,0,14,0,26.28,0,.39,0,.73,0,1.19a5.57,5.57,0,0,1-.21,1.39,6,6,0,0,1-4,4.08,5.9,5.9,0,0,1-1.51.26c-.53,0-.9,0-1.37,0l-11.42,0-26.79,0c.19,17.48.46,42.19.73,67.12.31,25.26.67,50.73,1,69.31.29,14.37.46,31.48.55,49.7,0,1.13,0,2.28,0,3.42a10.52,10.52,0,0,1-5.69,9.22,10.27,10.27,0,0,1-3.64,1.07c-1.31.11-2.42,0-3.61,0l-7.08-.07-3.56-.05a9.8,9.8,0,0,1-3.7-.77,10.19,10.19,0,0,1-5.33-5.11,10.32,10.32,0,0,1-.91-3.62c-.05-1.26,0-2.39.05-3.59q.07-3.56.17-7.08c.91-37.69,1.86-73.41,2.12-94.33.1-8.3.12-20.25.1-34.91s-.09-31.75-.14-50.75l-36.17.67-18.52.31-9.08.15-4.65.06a3.94,3.94,0,0,1-3.06-1.18,4.12,4.12,0,0,1-1.1-3.11c0-3-.08-5.92-.12-8.8a4.31,4.31,0,0,1,1-3.12,4.15,4.15,0,0,1,2.89-1.44l4.27-.32a79.29,79.29,0,0,0,14.44-2.82,66.49,66.49,0,0,0,20-9.81,46.16,46.16,0,0,0,10-10l1.06-1.47c.32-.51.6-1,.91-1.56l.91-1.58c.29-.53.5-1.1.76-1.65l.74-1.67c.24-.56.38-1.15.57-1.73l.56-1.74.16-.55c.07-.23.17-.46.26-.68a5.73,5.73,0,0,1,3.05-2.89,5.45,5.45,0,0,1,1.37-.37,5.65,5.65,0,0,1,.71,0h.52l3.89,0,3.34,0,.79,0a6.29,6.29,0,0,0,0-.77l0-.48a6.68,6.68,0,0,1,.22-1.25,7.14,7.14,0,0,1,1-2.28,7.27,7.27,0,0,1,4-2.87,8.49,8.49,0,0,1,1.22-.24c.41,0,.86,0,1.13,0l1.91,0,3.77,0,7.43,0h.91c.33,0,.56,0,1,0a6.69,6.69,0,0,1,2.26.5,7.11,7.11,0,0,1,3.45,2.9,7.07,7.07,0,0,1,1,3.18v1.32c-.06.2.16.12.28.14h.4l5.88,0,22.33,0q4.58,0,7.93.14l1.61.07c.51,0,1,0,1.59.12a5.86,5.86,0,0,1,2.72,1.23A4.75,4.75,0,0,1,370,56.48c.05.78-.16,1.11-.35,1.09s-.43-.41-.85-1a5.14,5.14,0,0,0-2.14-1.69,4.14,4.14,0,0,0-1.79-.27c-.89.06-1.91.11-3,.16-2.16.08-4.67.13-7.5.13l-12.52-.06-9-.07-5.13-.05-3.69,0h-1.44s-.1,0-.09,0v-.53l0-2.15a6.51,6.51,0,0,0-.32-2.84,4.25,4.25,0,0,0-1.34-1.7,4.06,4.06,0,0,0-2.09-.8l-.29,0h-2.75l-6.53,0-3.39,0-1.72,0a8.06,8.06,0,0,0-1.47.07,4.32,4.32,0,0,0-3.44,3.76l0,.53,0,.65,0,1.29,0,1.3a1.66,1.66,0,0,1,0,.32h-1l-4.64,0-3.78,0h-1.91a2.77,2.77,0,0,0-1.31.3,2.58,2.58,0,0,0-1,.87,2.28,2.28,0,0,0-.31.6l-.26.84-.61,1.94a12.55,12.55,0,0,1-.68,1.92,41.85,41.85,0,0,1-9.14,13.77,56.72,56.72,0,0,1-13.73,10.15A68,68,0,0,1,244.33,91c-.71.21-1.43.36-2.16.5l-2.17.43c-1.44.32-2.91.49-4.38.68l-2.2.29c-.74.07-1.48.1-2.22.16l-2.22.15-.8,0a1.39,1.39,0,0,0-.65.24c-.89.61-.53,1.53-.6,3.17l0,4.41v2.2a1.93,1.93,0,0,0,.28,1.32,1.37,1.37,0,0,0,1.2.52h2l17.57-.13c11.65-.11,23.14-.26,34.25-.46l7.18-.12,9.73-.09q0,9-.09,18.28-.07,8.27-.16,16.74-.19,17-.55,34.68c-.45,23.61-1.05,48.15-1.66,73.31q-.44,18.89-.89,38.18l-.21,9.66c0,.8,0,1.64,0,2.35a8.31,8.31,0,0,0,.47,2.2,8.94,8.94,0,0,0,6.5,5.76,10.82,10.82,0,0,0,2.3.21l2.44,0,9.78.07a9.17,9.17,0,0,0,8-4.07,9,9,0,0,0,1.48-4.39c.07-1.58,0-3.26,0-4.89q-.11-9.84-.22-19.71-.26-19.76-.7-39.58c-.77-35-1.45-65.7-2-88.16-.26-11.23-.48-20.4-.63-27-.22-7.76-.35-12.52-.38-13.7l34.59-.09,6.29,0c.47,0,1.05,0,1.41,0a2.64,2.64,0,0,0,.81-.14,2.82,2.82,0,0,0,1.3-.88,2.79,2.79,0,0,0,.63-1.32,2.2,2.2,0,0,0,0-.36V99.7c0-1.58,0-3.07,0-4.48,0-11.25,0-17,0-21.27C367.66,51.3,370.86,56.53,370.86,74Z" transform="translate(-0.16)" style="fill:#fff;stroke:#fff;stroke-miterlimit:10;stroke-width:1.5px"/><g style="clip-path:url(#b)"><path d="M125.87,127.47c2.75-2.74,13.71-13.38,18.57-18.56S158.85,95.62,162.51,92s14.24-16.5,17.74-19.69,7.86-7.36,10-9.49,3.11-.85,1.13,1.13-12.44,11.3-19.63,19.63-18.31,16.69-27.65,26.84S129,126.63,127,128.61,124.35,129,125.87,127.47Z" transform="translate(-0.16)" style="fill:#fff;stroke:#fff;stroke-miterlimit:10;stroke-width:0.75px"/><path d="M119.41,120.93c2.83-2.82,14.11-13.78,19.12-19.11s14.83-13.7,18.59-17.46,14.69-17,18.3-20.24,8.08-7.59,10.27-9.79,3.17-.9,1.13,1.14S174,67.12,166.61,75.68s-18.83,17.21-28.45,27.64S122.58,120,120.55,122.06,117.85,122.5,119.41,120.93Z" transform="translate(-0.16)" style="fill:#fff;stroke:#fff;stroke-miterlimit:10;stroke-width:0.75px"/><path d="M131.49,148.85c3-3,14.92-14.59,20.22-20.22s15.65-14.51,19.62-18.49,15.61-17.87,19.42-21.35,8.53-8,10.85-10.36,3.28-1,1.13,1.13-13.49,12.36-21.38,21.38-19.87,18.24-30.07,29.25-16.5,17.64-18.65,19.79S129.84,150.51,131.49,148.85Z" transform="translate(-0.16)" style="fill:#fff;stroke:#fff;stroke-miterlimit:10;stroke-width:0.75px"/><path d="M125,142.31c3.06-3.07,15.31-15,20.76-20.77s16.06-14.92,20.14-19,16.06-18.32,20-21.9,8.75-8.27,11.14-10.66,3.34-1.08,1.13,1.14-13.84,12.71-22,22-20.38,18.76-30.87,30.06-17,18.1-19.18,20.31S123.33,144,125,142.31Z" transform="translate(-0.16)" style="fill:#fff;stroke:#fff;stroke-miterlimit:10;stroke-width:0.75px"/><path d="M134.47,170.87c2.95-3,14.71-14.38,19.95-19.94s15.44-14.31,19.36-18.23,15.38-17.64,19.13-21.08,8.42-7.93,10.71-10.22,3.26-1,1.13,1.14-13.31,12.18-21.08,21.08-19.61,18-29.67,28.86-16.27,17.4-18.39,19.52S132.84,172.51,134.47,170.87Z" transform="translate(-0.16)" style="fill:#fff;stroke:#fff;stroke-miterlimit:10;stroke-width:0.75px"/><path d="M134.91,158.43c2.83-2.82,14.11-13.78,19.12-19.11s14.83-13.7,18.59-17.46,14.69-17,18.3-20.24S199,94,201.19,91.83s3.17-.9,1.13,1.14-12.79,11.65-20.21,20.21-18.83,17.21-28.45,27.64-15.58,16.71-17.61,18.74S133.35,160,134.91,158.43Z" transform="translate(-0.16)" style="fill:#fff;stroke:#fff;stroke-miterlimit:10;stroke-width:0.75px"/><path d="M161.12,172.23c3.23-3.23,16.11-15.79,21.86-21.87s16.88-15.74,21.18-20,17-19.24,21.08-23,9.2-8.72,11.71-11.23,3.47-1.2,1.14,1.13S223.54,110.62,215,120.32,193.54,140.13,182.48,152s-17.9,19-20.23,21.36S159.32,174,161.12,172.23Z" transform="translate(-0.16)" style="fill:#fff;stroke:#fff;stroke-miterlimit:10;stroke-width:0.75px"/><path d="M160.49,159.85c3-3,14.92-14.59,20.22-20.22s15.65-14.51,19.62-18.49,15.61-17.87,19.42-21.35,8.53-8,10.85-10.36,3.28-1,1.13,1.13-13.49,12.36-21.38,21.38-19.87,18.24-30.07,29.25-16.5,17.64-18.65,19.79S158.84,161.51,160.49,159.85Z" transform="translate(-0.16)" style="fill:#fff;stroke:#fff;stroke-miterlimit:10;stroke-width:0.75px"/><path d="M146.38,2.4c-2.67,2.66-13.31,13-18,18s-14,12.87-17.55,16.42S97,52.88,93.62,56,86,63.1,83.92,65.17s-3,.79-1.13-1.13,12.09-11,19-19.05,17.79-16.17,26.84-26,14.64-15.78,16.56-17.7S147.85.92,146.38,2.4Z" transform="translate(-0.16)" style="fill:#fff;stroke:#fff;stroke-miterlimit:10;stroke-width:0.75px"/><path d="M66.33,68c2.66-2.66,13.31-13,18-18s14-12.87,17.55-16.42,13.78-16,17.19-19.13,7.63-7.14,9.69-9.21,3.06-.79,1.14,1.13-12.09,11-19,19.05S93.08,41.59,84,51.45,69.38,67.23,67.46,69.15,64.86,69.49,66.33,68Z" transform="translate(-0.16)" style="fill:#fff;stroke:#fff;stroke-miterlimit:10;stroke-width:0.75px"/><path d="M81.43,92.91c2.87-2.86,14.31-14,19.4-19.39s15-13.9,18.84-17.71,14.92-17.19,18.58-20.52,8.19-7.71,10.42-9.93,3.19-.94,1.13,1.13-13,11.83-20.51,20.5S110.21,64.46,100.44,75,84.63,92,82.57,94,79.84,94.5,81.43,92.91Z" transform="translate(-0.16)" style="fill:#fff;stroke:#fff;stroke-miterlimit:10;stroke-width:0.75px"/><path d="M79.83,81.51c2.66-2.66,13.31-13,18-18s14-12.87,17.55-16.42S129.18,31,132.59,28s7.63-7.14,9.69-9.21,3.06-.79,1.14,1.13-12.09,11-19,19.05S106.58,55.09,97.53,65,82.88,80.73,81,82.65,78.36,83,79.83,81.51Z" transform="translate(-0.16)" style="fill:#fff;stroke:#fff;stroke-miterlimit:10;stroke-width:0.75px"/><path d="M99.45,100.89C102.36,98,114,86.71,119.12,81.23s15.24-14.11,19.11-18,15.14-17.41,18.85-20.8,8.31-7.81,10.56-10.07,3.23-1,1.13,1.13-13.14,12-20.79,20.8S128.63,72,118.72,82.76s-16,17.17-18.13,19.26S97.84,102.5,99.45,100.89Z" transform="translate(-0.16)" style="fill:#fff;stroke:#fff;stroke-miterlimit:10;stroke-width:0.75px"/><path d="M87.93,99.41c2.87-2.86,14.31-14,19.4-19.39s15-13.9,18.84-17.71,14.92-17.19,18.58-20.52,8.19-7.71,10.42-9.93,3.19-.94,1.13,1.13-13,11.83-20.51,20.5S116.71,71,106.94,81.54s-15.81,16.94-17.87,19S86.34,101,87.93,99.41Z" transform="translate(-0.16)" style="fill:#fff;stroke:#fff;stroke-miterlimit:10;stroke-width:0.75px"/><path d="M110.66,115c12.56-13.69,21.81-21.43,27-27s20.4-14.74,24.55-24.55S176,49.32,176,49.32A197.7,197.7,0,0,1,161.42,68.4c-7,7.76-14.57,14.95-16.31,19s-11.75,9.1-17.66,15.39S110.66,115,110.66,115Z" transform="translate(-0.16)" style="fill:#fff"/><path d="M106.45,107.89c2.91-2.9,14.51-14.18,19.67-19.66s15.24-14.11,19.11-18,15.14-17.41,18.85-20.8,8.31-7.81,10.56-10.07,3.23-1,1.13,1.13-13.14,12-20.79,20.8S135.63,79,125.72,89.76s-16,17.17-18.13,19.26S104.84,109.5,106.45,107.89Z" transform="translate(-0.16)" style="fill:#fff;stroke:#fff;stroke-miterlimit:10;stroke-width:0.75px"/><path d="M158.87,280.47c2.75-2.74,13.71-13.38,18.57-18.56s14.41-13.29,18.07-16.94,14.24-16.5,17.74-19.69,7.86-7.36,10-9.49,3.11-.85,1.13,1.13-12.44,11.3-19.63,19.63-18.31,16.69-27.65,26.84S162,279.63,160,281.61,157.35,282,158.87,280.47Z" transform="translate(-0.16)" style="fill:#fff;stroke:#fff;stroke-miterlimit:10;stroke-width:0.75px"/><path d="M152.41,273.93c2.83-2.82,14.11-13.78,19.12-19.11s14.83-13.7,18.59-17.46,14.69-17,18.3-20.24,8.08-7.59,10.27-9.79,3.17-.9,1.13,1.14S207,220.12,199.61,228.68s-18.83,17.21-28.45,27.64S155.58,273,153.55,275.06,150.85,275.5,152.41,273.93Z" transform="translate(-0.16)" style="fill:#fff;stroke:#fff;stroke-miterlimit:10;stroke-width:0.75px"/><path d="M164.49,301.85c3-3,14.92-14.59,20.22-20.22s15.65-14.51,19.62-18.49,15.61-17.87,19.42-21.35,8.53-8,10.85-10.36,3.28-1,1.13,1.13-13.49,12.36-21.38,21.38-19.87,18.24-30.07,29.25-16.5,17.64-18.65,19.79S162.84,303.51,164.49,301.85Z" transform="translate(-0.16)" style="fill:#fff;stroke:#fff;stroke-miterlimit:10;stroke-width:0.75px"/><path d="M158,295.31c3.06-3.07,15.31-15,20.76-20.77s16.06-14.92,20.14-19,16.06-18.32,20-21.9,8.75-8.27,11.14-10.66,3.34-1.08,1.13,1.14-13.84,12.71-22,22-20.38,18.76-30.87,30.06-17,18.1-19.18,20.31S156.33,297,158,295.31Z" transform="translate(-0.16)" style="fill:#fff;stroke:#fff;stroke-miterlimit:10;stroke-width:0.75px"/><path d="M182.47,309.87c2.95-2.95,14.71-14.38,19.95-19.94s15.44-14.31,19.36-18.23,15.38-17.64,19.13-21.08,8.42-7.93,10.71-10.22,3.26-1,1.13,1.14-13.31,12.18-21.08,21.08-19.61,18-29.67,28.86-16.27,17.4-18.39,19.52S180.84,311.51,182.47,309.87Z" transform="translate(-0.16)" style="fill:#fff;stroke:#fff;stroke-miterlimit:10;stroke-width:0.75px"/><path d="M178.91,300.43c2.83-2.82,14.11-13.78,19.12-19.11s14.83-13.7,18.59-17.46,14.69-17,18.3-20.24,8.08-7.59,10.27-9.79,3.17-.9,1.13,1.13-12.79,11.66-20.21,20.22-18.83,17.21-28.45,27.64-15.58,16.71-17.61,18.74S177.35,302,178.91,300.43Z" transform="translate(-0.16)" style="fill:#fff;stroke:#fff;stroke-miterlimit:10;stroke-width:0.75px"/><path d="M194.12,325.23c3.23-3.23,16.11-15.79,21.86-21.87s16.88-15.74,21.18-20,17-19.24,21.08-23,9.2-8.72,11.71-11.23,3.47-1.2,1.14,1.13S256.54,263.62,248,273.32,226.54,293.13,215.48,305s-17.9,19-20.23,21.36S192.32,327,194.12,325.23Z" transform="translate(-0.16)" style="fill:#fff;stroke:#fff;stroke-miterlimit:10;stroke-width:0.75px"/><path d="M193.49,312.85c3-3,14.92-14.59,20.22-20.22s15.65-14.51,19.62-18.49,15.61-17.87,19.42-21.35,8.53-8,10.85-10.36,3.28-1,1.13,1.13-13.49,12.36-21.38,21.38-19.87,18.24-30.07,29.25-16.5,17.64-18.65,19.79S191.84,314.51,193.49,312.85Z" transform="translate(-0.16)" style="fill:#fff;stroke:#fff;stroke-miterlimit:10;stroke-width:0.75px"/><path d="M179.38,155.4c-2.67,2.66-13.31,13-18,18s-14,12.87-17.55,16.42S130,205.88,126.62,209s-7.63,7.14-9.7,9.21-3,.79-1.13-1.13,12.09-10.95,19-19,17.79-16.17,26.84-26,14.64-15.78,16.56-17.7S180.85,153.92,179.38,155.4Z" transform="translate(-0.16)" style="fill:#fff;stroke:#fff;stroke-miterlimit:10;stroke-width:0.75px"/><path d="M99.33,221c2.66-2.66,13.31-13,18-18s14-12.87,17.55-16.42,13.78-16.05,17.19-19.13,7.63-7.14,9.69-9.21,3.06-.79,1.14,1.13-12.09,10.95-19,19-17.79,16.17-26.84,26-14.65,15.78-16.57,17.7S97.86,222.49,99.33,221Z" transform="translate(-0.16)" style="fill:#fff;stroke:#fff;stroke-miterlimit:10;stroke-width:0.75px"/><path d="M114.43,245.91c2.87-2.86,14.31-14,19.4-19.39s15-13.9,18.84-17.71,14.92-17.19,18.58-20.52,8.19-7.71,10.42-9.93,3.19-.94,1.13,1.13-13,11.83-20.51,20.5-19.08,17.47-28.85,28S117.63,245,115.57,247,112.84,247.5,114.43,245.91Z" transform="translate(-0.16)" style="fill:#fff;stroke:#fff;stroke-miterlimit:10;stroke-width:0.75px"/><path d="M112.83,234.51c2.66-2.66,13.31-13,18-18s14-12.87,17.55-16.42S162.18,184,165.59,181s7.63-7.14,9.69-9.21,3.06-.79,1.14,1.13-12.09,10.95-19,19-17.79,16.17-26.84,26-14.65,15.78-16.57,17.7S111.36,236,112.83,234.51Z" transform="translate(-0.16)" style="fill:#fff;stroke:#fff;stroke-miterlimit:10;stroke-width:0.75px"/><path d="M132.45,253.89c2.91-2.9,14.51-14.18,19.67-19.66s15.24-14.11,19.11-18,15.14-17.41,18.85-20.8,8.31-7.81,10.56-10.07,3.23-1,1.13,1.13-13.14,12-20.79,20.8S161.63,225,151.72,235.76s-16,17.17-18.13,19.26S130.84,255.5,132.45,253.89Z" transform="translate(-0.16)" style="fill:#fff;stroke:#fff;stroke-miterlimit:10;stroke-width:0.75px"/><path d="M120.93,252.41c2.87-2.86,14.31-14,19.4-19.39s15-13.9,18.84-17.71,14.92-17.19,18.58-20.52,8.19-7.71,10.42-9.93,3.19-.94,1.13,1.13-13,11.83-20.51,20.5-19.08,17.47-28.85,28-15.81,16.94-17.87,19S119.34,254,120.93,252.41Z" transform="translate(-0.16)" style="fill:#fff;stroke:#fff;stroke-miterlimit:10;stroke-width:0.75px"/><path d="M143.66,268c12.56-13.69,21.81-21.43,27-27s20.4-14.74,24.55-24.55S209,202.32,209,202.32a197.7,197.7,0,0,1-14.55,19.08c-7,7.76-14.57,14.95-16.31,19s-11.75,9.1-17.66,15.39S143.66,268,143.66,268Z" transform="translate(-0.16)" style="fill:#fff"/><path d="M139.45,260.89c2.91-2.9,14.51-14.18,19.67-19.66s15.24-14.11,19.11-18,15.14-17.41,18.85-20.8,8.31-7.81,10.56-10.07,3.23-1,1.13,1.13-13.14,12-20.79,20.8S168.63,232,158.72,242.76s-16,17.17-18.13,19.26S137.84,262.5,139.45,260.89Z" transform="translate(-0.16)" style="fill:#fff;stroke:#fff;stroke-miterlimit:10;stroke-width:0.75px"/><path d="M60.87,313.47c2.75-2.74,13.71-13.38,18.57-18.56S93.85,281.62,97.51,278s14.24-16.5,17.74-19.69,7.86-7.36,10-9.49,3.11-.85,1.13,1.13-12.44,11.3-19.63,19.63-18.31,16.69-27.65,26.84S64,312.63,62,314.61,59.35,315,60.87,313.47Z" transform="translate(-0.16)" style="fill:#fff;stroke:#fff;stroke-miterlimit:10;stroke-width:0.75px"/><path d="M54.41,306.93c2.83-2.82,14.11-13.78,19.12-19.11s14.83-13.7,18.59-17.46,14.69-17,18.3-20.24,8.08-7.59,10.27-9.79,3.17-.9,1.13,1.13S109,253.12,101.61,261.68s-18.83,17.21-28.45,27.64S57.58,306,55.55,308.06,52.85,308.5,54.41,306.93Z" transform="translate(-0.16)" style="fill:#fff;stroke:#fff;stroke-miterlimit:10;stroke-width:0.75px"/><path d="M66.49,334.85c3-3,14.92-14.59,20.22-20.22s15.65-14.51,19.62-18.49,15.61-17.87,19.42-21.35,8.53-8,10.85-10.36,3.28-1,1.13,1.13-13.49,12.36-21.38,21.38-19.87,18.24-30.07,29.25S69.78,333.83,67.63,336,64.84,336.51,66.49,334.85Z" transform="translate(-0.16)" style="fill:#fff;stroke:#fff;stroke-miterlimit:10;stroke-width:0.75px"/><path d="M60,328.31c3.06-3.07,15.31-15,20.76-20.77s16.06-14.92,20.14-19,16.06-18.32,20-21.9,8.75-8.27,11.14-10.66,3.34-1.08,1.13,1.14-13.84,12.71-22,22-20.38,18.76-30.87,30.06-17,18.1-19.18,20.31S58.33,330,60,328.31Z" transform="translate(-0.16)" style="fill:#fff;stroke:#fff;stroke-miterlimit:10;stroke-width:0.75px"/><path d="M84.47,342.87c3-2.95,14.71-14.38,20-19.94s15.44-14.31,19.36-18.23,15.38-17.64,19.13-21.08,8.42-7.93,10.71-10.22,3.26-1,1.13,1.14-13.31,12.18-21.08,21.08-19.61,18-29.67,28.86S87.73,341.88,85.61,344,82.84,344.51,84.47,342.87Z" transform="translate(-0.16)" style="fill:#fff;stroke:#fff;stroke-miterlimit:10;stroke-width:0.75px"/><path d="M80.91,333.43C83.74,330.61,95,319.65,100,314.32s14.83-13.7,18.59-17.46,14.69-17,18.3-20.24,8.08-7.59,10.27-9.79,3.17-.9,1.13,1.13-12.79,11.66-20.21,20.22-18.83,17.21-28.45,27.64-15.58,16.71-17.61,18.74S79.35,335,80.91,333.43Z" transform="translate(-0.16)" style="fill:#fff;stroke:#fff;stroke-miterlimit:10;stroke-width:0.75px"/><path d="M96.12,358.23c3.23-3.23,16.11-15.79,21.86-21.87s16.88-15.74,21.18-20,17-19.24,21.08-23,9.2-8.72,11.71-11.23,3.47-1.2,1.14,1.13S158.54,296.62,150,306.32,128.54,326.13,117.48,338s-17.9,19-20.23,21.36S94.32,360,96.12,358.23Z" transform="translate(-0.16)" style="fill:#fff;stroke:#fff;stroke-miterlimit:10;stroke-width:0.75px"/><path d="M95.49,345.85c3-3,14.92-14.59,20.22-20.22s15.65-14.51,19.62-18.49,15.61-17.87,19.42-21.35,8.53-8,10.85-10.36,3.28-1,1.13,1.13-13.49,12.36-21.38,21.38-19.87,18.24-30.07,29.25S98.78,344.83,96.63,347,93.84,347.51,95.49,345.85Z" transform="translate(-0.16)" style="fill:#fff;stroke:#fff;stroke-miterlimit:10;stroke-width:0.75px"/><path d="M81.38,188.4c-2.67,2.66-13.31,13-18,18s-14,12.87-17.55,16.42S32,238.88,28.62,242s-7.63,7.14-9.7,9.21-3.05.79-1.13-1.13,12.09-10.95,19.05-19,17.79-16.17,26.84-26,14.64-15.78,16.56-17.7S82.85,186.92,81.38,188.4Z" transform="translate(-0.16)" style="fill:#fff;stroke:#fff;stroke-miterlimit:10;stroke-width:0.75px"/><path d="M1.33,254c2.66-2.66,13.31-13,18-18s14-12.87,17.55-16.42,13.78-16.05,17.19-19.13,7.63-7.14,9.69-9.21,3.06-.79,1.14,1.13-12.09,10.95-19.05,19-17.79,16.17-26.84,26S4.38,253.23,2.46,255.15-.14,255.49,1.33,254Z" transform="translate(-0.16)" style="fill:#fff;stroke:#fff;stroke-miterlimit:10;stroke-width:0.75px"/><path d="M16.43,278.91c2.87-2.86,14.31-14,19.4-19.39s15-13.9,18.84-17.71,14.92-17.19,18.58-20.52,8.19-7.71,10.42-9.93,3.19-.94,1.13,1.13-13,11.83-20.51,20.5S45.21,250.46,35.44,261,19.63,278,17.57,280,14.84,280.5,16.43,278.91Z" transform="translate(-0.16)" style="fill:#fff;stroke:#fff;stroke-miterlimit:10;stroke-width:0.75px"/><path d="M14.83,267.51c2.66-2.66,13.31-13,18-18s14-12.87,17.55-16.42S64.18,217,67.59,214s7.63-7.14,9.69-9.21,3.06-.79,1.14,1.13-12.09,10.95-19.05,19-17.79,16.17-26.84,26S17.88,266.73,16,268.65,13.36,269,14.83,267.51Z" transform="translate(-0.16)" style="fill:#fff;stroke:#fff;stroke-miterlimit:10;stroke-width:0.75px"/><path d="M34.45,286.89C37.36,284,49,272.71,54.12,267.23s15.24-14.11,19.11-18,15.14-17.41,18.85-20.8,8.31-7.81,10.56-10.07,3.23-1,1.13,1.13-13.14,12-20.79,20.8S63.63,258,53.72,268.76s-16,17.17-18.13,19.26S32.84,288.5,34.45,286.89Z" transform="translate(-0.16)" style="fill:#fff;stroke:#fff;stroke-miterlimit:10;stroke-width:0.75px"/><path d="M22.93,285.41c2.87-2.86,14.31-14,19.4-19.39s15-13.9,18.84-17.71,14.92-17.19,18.58-20.52,8.19-7.71,10.42-9.93,3.19-.94,1.13,1.13-13,11.83-20.51,20.5S51.71,257,41.94,267.54s-15.81,16.94-17.87,19S21.34,287,22.93,285.41Z" transform="translate(-0.16)" style="fill:#fff;stroke:#fff;stroke-miterlimit:10;stroke-width:0.75px"/><path d="M45.66,301c12.56-13.69,21.81-21.43,27-27s20.4-14.74,24.55-24.55S111,235.32,111,235.32A197.7,197.7,0,0,1,96.42,254.4c-7,7.76-14.57,15-16.31,19s-11.75,9.1-17.66,15.39S45.66,301,45.66,301Z" transform="translate(-0.16)" style="fill:#fff"/><path d="M41.45,293.89C44.36,291,56,279.71,61.12,274.23s15.24-14.11,19.11-18,15.14-17.41,18.85-20.8,8.31-7.81,10.56-10.07,3.23-1,1.13,1.13-13.14,12-20.79,20.8S70.63,265,60.72,275.76s-16,17.17-18.13,19.26S39.84,295.5,41.45,293.89Z" transform="translate(-0.16)" style="fill:#fff;stroke:#fff;stroke-miterlimit:10;stroke-width:0.75px"/></g><path d="M167.3,142.67c.33,14.75,1.16,51.16,2.06,90.63.24,9.87.47,19.93.71,29.89q.18,7.47.36,14.83.1,3.68.19,7.29l.09,3.6c0,.61,0,1.24,0,1.86s-.14,1.24-.21,1.85a18.53,18.53,0,0,1-31.62,9.77,18.73,18.73,0,0,1-5-10.05l-.17-1.34,0-1.36c0-.92,0-1.75,0-2.65,0-1.76.08-3.56.11-5.4.09-3.67.19-7.48.28-11.39.23-7.84.48-16.13.73-24.68.61-17.1,1.25-35.25,1.88-52.94s1.32-34.91,1.89-50.17c.14-3.81.27-7.51.4-11,0-1,.07-1.89.1-2.82l0-.75v-.19c0-.07-.09,0-.14-.09l-.34-.12-1.38-.51-1.24-.46c-.39-.13-.75-.33-1.13-.49l-2.21-1a46.8,46.8,0,0,1-13.42-10.19c-.8-.9-1.69-1.85-2.5-3-.4-.55-.87-1.09-1.27-1.7l-1.24-1.85a45.59,45.59,0,0,1-6.25-32.95,49.74,49.74,0,0,1,12.95-25,53.84,53.84,0,0,1,5.6-5.13,3.46,3.46,0,0,1,5.46,1.74,4,4,0,0,1,.15,1.1l0,1c.09,5.08.18,10.21.28,15.32s.18,10.24.27,15.3l.07,3.79,0,1.89c0,.3,0,.65,0,.92s0,.53.08.8A7.77,7.77,0,0,0,136,92.15a7.67,7.67,0,0,0,2.78,1.25,4.58,4.58,0,0,0,.74.13,4.73,4.73,0,0,0,.75,0l.39,0h.45l.9,0,7.13-.11,13.61-.2a10.72,10.72,0,0,0,2.78-.24,6.7,6.7,0,0,0,2.26-1,7.18,7.18,0,0,0,2.82-3.73A7.55,7.55,0,0,0,171,86c0-1,0-1.9,0-2.83,0-1.88,0-3.69,0-5.44-.05-7-.05-12.91,0-17.43,0-2.25.06-4.55.09-6.87,0-1.16,0-2.33,0-3.51l0-1.77v-.44c0-.17,0-.47.06-.7a5,5,0,0,1,.45-1.41A4.87,4.87,0,0,1,176.46,43a4.11,4.11,0,0,1,1.42.39,3.13,3.13,0,0,1,.65.35,2.94,2.94,0,0,1,.29.19l.19.15,1.5,1.22c1,.81,1.88,1.68,2.83,2.52s1.79,1.75,2.61,2.72A52.58,52.58,0,0,1,197.09,70a51,51,0,0,1,1.62,7.19A47.42,47.42,0,0,1,195,103.92a45.36,45.36,0,0,1-6.16,10,47.6,47.6,0,0,1-3.47,3.88c-.57.6-1.2,1.11-1.77,1.65s-1.12,1.06-1.72,1.5a38.37,38.37,0,0,1-6.4,4.22c-1,.48-1.85.94-2.68,1.27s-1.59.58-2.26.8l-.93.29-.84.16a11.94,11.94,0,0,1-1.27.18c-.68,0-1,0-1-.26s.29-.53.9-.95,1.55-.9,2.71-1.63a68.35,68.35,0,0,0,9.77-6.57,45.29,45.29,0,0,0,7.8-8.15l1.09-1.55.56-.81.52-.87,1.06-1.8c.36-.62.64-1.29,1-2A44.19,44.19,0,0,0,193.68,99c.29-.75.48-1.55.74-2.34a19.74,19.74,0,0,0,.65-2.46,44.76,44.76,0,0,0-.72-22.92,49,49,0,0,0-14.69-22.72c-.44-.42-.91-.78-1.38-1.16l-.69-.57-.35-.28-.18-.14-.12-.08a1.78,1.78,0,0,0-2.73,1.23l0,.31v1.44c0,1.28,0,2.57,0,3.86q0,7.76,0,15.77c0,5.33,0,10.74,0,16.18a16.63,16.63,0,0,1-.09,2.18,9.93,9.93,0,0,1-.55,2.21,10.18,10.18,0,0,1-2.46,3.8,10.39,10.39,0,0,1-3.89,2.37,10.66,10.66,0,0,1-2.24.49l-1.13.06h-1l-16.55.08-4.14,0a13.88,13.88,0,0,1-4.44-.42,10.56,10.56,0,0,1-6.68-6.08,9.7,9.7,0,0,1-.63-2.24,6.54,6.54,0,0,1-.13-1.16c0-.41,0-.75,0-1.08,0-1.36,0-2.72-.05-4.07,0-2.71-.07-5.41-.11-8.09q-.14-8-.26-15.85c0-2.6-.09-5.22-.14-7.86V47.75a1,1,0,0,0-.34-.59,1,1,0,0,0-1.26,0l-1.44,1.18-.72.6-.72.66-1.44,1.33-1.36,1.41c-.93.91-1.73,2-2.61,3l-1.2,1.57c-.4.53-.8,1.06-1.15,1.62a46.27,46.27,0,0,0-8.11,30.78,43.69,43.69,0,0,0,15.66,29.18,42.78,42.78,0,0,0,7.23,4.87c1.27.75,2.64,1.29,4,1.92l2.62,1,.83.3.41.15.21.08.1,0s0,.07,0,.1l-.06,1.77q-.35,9.42-.7,19c-.92,24.84-1.88,50.35-2.7,76.19q-.62,19.38-1.1,39-.21,9.78-.42,19.6l-.1,4.9c0,.81-.06,1.66,0,2.44l0,1.19.17,1.19a6.62,6.62,0,0,0,.23,1.16c.09.39.17.78.29,1.16a17.48,17.48,0,0,0,.87,2.21,16.51,16.51,0,0,0,2.58,4,17.26,17.26,0,0,0,3.54,3.08,18.12,18.12,0,0,0,4.18,2A17.24,17.24,0,0,0,156,306a16.79,16.79,0,0,0,12.1-11.23,15.57,15.57,0,0,0,.51-2c.11-.68.2-1.37.25-2.05,0-1.34,0-2.81-.07-4.24-.1-2.87-.2-5.71-.3-8.5q-.28-8.37-.56-16.26-1.07-31.55-1.86-55.34c-1-31.69-1.68-53-1.94-63.6C163.57,121.48,166.89,126.31,167.3,142.67Z" transform="translate(-0.16)" style="fill:#fff;stroke:#fff;stroke-miterlimit:10;stroke-width:1.5px"/></svg>