<svg xmlns="http://www.w3.org/2000/svg" viewBox="0 0 264.35 250.29"><title>boule</title><path d="M88.32,216s1.5-.91,1.52-.87l-2.18,1.66c.07.11,4.16-2.4,4.16-2.4l-3.62,4s9.14-5.27,9.14-5.27-8.27,5.9-8.27,5.9,10.85-6.67,11-6.37l-9.62,7,12.87-7.44-12,7.73s13.7-8,13.75-7.94S92.93,220.33,93,220.44s15-9.1,15.16-8.75L95.48,221s16.46-10.14,16.74-9.66L98.28,221.55c.19.34,17.82-11,18.12-10.46s-16.11,10.47-15.91,10.82c0,0,18.67-11.39,18.93-10.93,0,.06-17.88,11-17.8,11.08.23.4,19.28-11.16,19.29-11.14.18.31-18,11-17.79,11.34.32.55,19.76-11.41,19.76-11.41l-18.32,11.6,20.12-11.62-19.3,11.7c.17.3,20.09-12.06,20.29-11.71s-20.27,11.23-20,11.74c0,.05,20.35-11.74,20.35-11.74.19.32-20.17,11.71-20.14,11.76s20.26-12,20.39-11.77c.27.47-19.8,11.69-19.71,11.84l20.52-11.85c.3.53-19.39,12-19.39,12,.3.53,20.44-12.48,20.73-12L111,223.05c.24.41,21-12.62,21.2-12.24l-19,12.38c.25.44,21.3-12.51,21.39-12.35,0,0-19.49,12.43-19.45,12.48l21.54-12.44-18.63,12.58s21.22-13.11,21.59-12.47c0,0-18.38,12.07-18.07,12.6,0,.07,21.53-12.51,21.57-12.45.24.43-19.69,12.5-19.69,12.5.15.25,21.38-12.51,21.45-12.38l-21.06,12.38,21.42-12.36c.18.3-21.36,12.21-21.27,12.37s21.24-12.64,21.41-12.36-19.34,11.9-19.06,12.39c.15.25,21.19-12.29,21.21-12.25.13.22-21.15,12.25-21.15,12.25s20.9-12.79,21.21-12.25-19.8,12.26-19.8,12.26l21.08-12.16s-17.73,12.06-17.67,12.16c.34.58,20.59-11.88,20.59-11.88s-20.13,11.52-19.92,11.87c0,.07,20.47-11.82,20.47-11.82l-19,11.8L153.59,212c.22.38-17.58,11.52-17.51,11.65.26.43,19.44-11.85,19.71-11.38,0,0-16.61,11.26-16.61,11.26l19-10.95s-15.52,10.82-15.52,10.82l18-10.41c.16.27-16.05,9.89-15.84,10.27.07.11,17.33-10,17.34-10,.15.28-13.21,9.73-13.21,9.73s15.84-9.15,15.84-9.15-15.53,9.12-15.53,9.12c.24.42,15.71-9.07,15.71-9.07.13.23-15.49,8.72-15.31,9,0,0,15.36-9.3,15.55-9l-14,8.83s14.68-8.93,14.88-8.59c0,0-11.9,8-11.73,8.28,0,0,13.4-7.81,13.43-7.75.13.23-12,7.56-12,7.56l12.65-7.3-7.32,6.5s9.28-5.5,9.34-5.39-5.11,4.43-5.08,4.49,5.82-3.45,5.86-3.38-5.59,3.3-5.58,3.31,5.57-3.32,5.61-3.24-4.92,2.87-4.84,3,4.68-2.82,4.73-2.73-2.28,1.79-2.25,1.84,1.52-.88,1.52-.88" style="fill:none;stroke:#5b5b5b;stroke-linecap:round;stroke-linejoin:round;stroke-width:0.400000005960465px"/><path d="M67.43,216.58s2.22-1.34,2.24-1.29l-3.11,2.2c.08.14,5.33-3.07,5.33-3.07l-5.34,5S78,212.76,78,212.76s-10.78,7.35-10.78,7.35,13.57-8.35,13.79-8l-12.68,8.77,16.24-9.38L69,221.3s17.3-10.14,17.36-10-16,10.53-15.89,10.67,19-11.58,19.28-11.13l-17.13,11.9s21.13-13,21.48-12.4l-19,13.12c.25.43,23.13-14.25,23.52-13.58s-21.83,13.61-21.55,14.08c0,0,24.47-14.93,24.82-14.33.05.09-23.91,14.37-23.81,14.55.31.52,25.39-14.71,25.41-14.68.24.42-24.31,14.51-24,15,.42.73,26.17-15.11,26.17-15.11L80.73,224.71l26.82-15.49L81.47,224.84c.23.39,26.88-16.14,27.15-15.67s-27.26,15-26.86,15.72c0,.06,27.26-15.75,27.26-15.75.26.44-27.11,15.71-27.07,15.78s27.17-16.1,27.35-15.79c.36.63-26.86,15.7-26.74,15.89l27.61-15.94c.41.72-26.6,16.12-26.6,16.12.42.72,27.66-16.88,28.05-16.2L86.57,225.65c.33.57,28.82-17.33,29.12-16.81L88.56,225.92c.35.61,29.6-17.38,29.73-17.16,0,0-28,17.33-28,17.4l30.27-17.47L92.94,226.46s30.35-18.75,30.88-17.83c0,0-28.17,17.36-27.71,18.16.06.11,31.48-18.29,31.53-18.2C128,209.24,97.78,227,97.78,227c.21.38,31.76-18.58,31.86-18.4L98.13,227l31.92-18.43c.26.45-31.93,18.2-31.79,18.44s31.7-18.86,31.94-18.44-30.26,17.86-29.83,18.6c.22.39,32.15-18.64,32.19-18.58.19.34-32.13,18.59-32.13,18.59s31.72-19.41,32.19-18.59c.37.64-30.92,18.69-30.92,18.69L134,208.61s-29.44,18.73-29.34,18.9c.53.92,32.68-18.87,32.68-18.87S104.94,227,105.27,227.56c.06.1,32.75-18.91,32.75-18.91l-31.45,19,32.82-19c.37.65-30.5,18.86-30.37,19.09.42.72,32.45-19.8,32.91-19,0,0-30.27,19.14-30.27,19.14l33-19.06s-30,19.19-30,19.19l33-19.08c.31.54-31.61,18.4-31.19,19.14.12.2,33-19.06,33-19,.34.58-29.53,19.15-29.53,19.15.13.21,32.86-19,32.86-19,.1.16-32.62,19-32.62,19,.51.88,32.85-19,32.85-19,.28.48-32.91,18.31-32.53,19,0,0,32.44-19.64,32.84-19l-31.62,19s32.36-19.68,32.79-18.93c0,0-30.66,18.19-30.22,19,0,0,32.46-18.92,32.54-18.78.35.6-31.46,18.79-31.46,18.79l32.43-18.72-28.55,18.76s31.81-18.87,32-18.49c0,0-29.5,18.16-29.32,18.49,0,0,31.43-18.65,31.65-18.27.12.21-31.53,18.19-31.49,18.26s31.36-18.69,31.62-18.25c0,0-31.73,17.42-31.25,18.25s31.21-18.81,31.55-18.22c0,0-28.86,17.6-28.52,18.19.21.38,31-17.93,31-17.93.49.86-29.87,17.92-29.87,17.92.24.41,30.48-18.44,30.85-17.81.45.78-30,17.8-30,17.8l30.71-17.73s-26.81,17.17-26.55,17.62c.12.21,29.81-17.21,29.81-17.21l-26.41,17.11,29-16.75S146.91,227.86,147,228c.19.32,28.18-17.15,28.56-16.49,0,0-26.54,15.9-26.27,16.37l27.87-16.1-26.61,16L178,211.92c.09.16-26.91,15.85-26.91,15.85.26.45,27.32-15.78,27.32-15.78.21.36-25.27,15.45-25.15,15.66s26.65-15.38,26.65-15.38c.26.45-24.92,15-24.75,15.27.4.69,25.76-15.45,26-15,0,0-24,14.51-23.79,14.84l25.2-14.55c.17.28-24.15,14.1-23.94,14.45,0,0,24.7-14.32,24.73-14.28.29.5-21.57,13.76-21.42,14l23.41-13.52c.13.22-23.12,13-22.85,13.47.05.1,23.07-13.57,23.18-13.38,0,0-19.76,13-19.74,13l21.59-12.47L167.2,226.48s21-12.23,21-12.13-16.18,11.13-16,11.51c0,0,18.19-10.84,18.34-10.59,0,0-13.87,9.46-13.63,9.89,0,0,15.37-9,15.44-8.91.18.32-10.88,8-10.84,8.05l12.06-7s-6.16,5.47-6.16,5.47,6.38-3.7,6.39-3.69-3.21,2.5-3.21,2.5l2.24-1.29" style="fill:none;stroke:#5b5b5b;stroke-linecap:round;stroke-linejoin:round;stroke-width:0.300000011920929px"/><g style="opacity:0.5"><path d="M24.07,212.74s17.15-9.92,17.15-9.91L8.77,222c.09.16,21.89-12.64,21.89-12.64L12,222s14.91-8.61,14.91-8.61S.05,230,.05,230s31.92-19.1,32.21-18.6L21.11,219.3l6-3.49L10.69,226.09s35.5-20.7,35.58-20.55c0,0-33.9,20.68-33.73,21,0,0,48.56-28.83,48.9-28.24L17.08,225.9s45.61-27.44,46.09-26.6L1.89,236.82c.35.59,54.66-32.78,55.19-31.86s-32.67,19.57-32.27,20.26c0,0,46.34-27.85,46.82-27,.08.14-38.64,22.74-38.48,23,.43.73,15.38-8.94,15.4-8.89.33.57-33.87,19.79-33.51,20.41.59,1,60.2-34.76,60.2-34.76L36.09,221.6l44.2-25.52L40.4,219.67c.32.55,23.71-14.57,24.09-13.91.55.94-55.21,30.22-54.4,31.62C10.14,237.47,62.8,207,62.8,207c.39.68-42,24.24-41.93,24.35s59.82-35.12,60.07-34.68c.77,1.33-56.57,32.56-56.33,33l46.68-26.95C72,204,23,231.31,23,231.31c.59,1,38.43-23.46,39-22.5l-19.41,13.4C43,223,67.58,206.75,68,207.49l-25.6,16.2c.51.88,36.43-21.46,36.61-21.14,0,0-30.85,18.95-30.8,19l43-24.81-71.41,43s84.16-50.37,84.93-49c0,0-70.17,40.06-69,42,.09.16,41.86-24.34,41.94-24.21C78,209.35,43,229.72,43,229.72c.32.56,69.93-40.73,70.09-40.46L48.28,226.9l54.8-31.65c.49.85-60,34.16-59.77,34.6s46.47-27.66,46.83-27S43.76,229.47,44.41,230.6c.33.57,43.85-25.44,43.9-25.35.36.62-59,34.13-59,34.13s54.72-33.23,55.43-32c.6,1-49.63,29.49-49.63,29.49l74.44-43s-58.94,35.56-58.75,35.89c.81,1.4,68-39.26,68-39.26S36,236.72,36.85,238.18c.09.16,53.36-30.81,53.36-30.81l-59.2,35,59.72-34.48c.73,1.27-60.21,35.72-59.95,36.17.65,1.13,71.46-42.9,72.17-41.67,0,.06-43.18,26.6-43.18,26.6l54-31.2c0,.05-50.65,31.1-50.65,31.1l47.6-27.49c.4.69-40.59,23.32-40,24.26.19.33,46.91-27.12,46.92-27.1.79,1.36-69.47,42.22-69.47,42.22.21.36,82-47.32,82-47.32.2.35-67.36,39-67.36,39,.82,1.43,52-30,52-30,.53.91-61.94,34.3-61.22,35.54,0,0,49.07-29.83,49.72-28.71L46.8,242.63s64.43-38.85,65.14-37.61c0,0-69.67,39.45-68.68,41.16,0,0,75-43.61,75.13-43.37.43.75-39.26,23.3-39.26,23.3l34.72-20.05L69.33,234s59-35,59.42-34.3c0,0-44.56,26.63-44.28,27.12,0,0,58.92-34.9,59.31-34.24.28.49-73.47,42.26-73.36,42.44,0,0,59.88-35.62,60.33-34.83,0,0-49.12,26.85-48.38,28.14.94,1.62,52.67-31.82,53.28-30.76,0,0-70.06,40.3-69.25,41.7.39.69,82.32-47.53,82.32-47.53,1.6,2.76-97.28,56.83-97.28,56.83.44.77,80.09-47.78,80.76-46.63,1.07,1.86-71.58,41.79-71.58,41.79l85.47-49.35c.06.09-59.16,35.16-58.6,36.14.23.39,67.18-38.79,67.18-38.79L94.58,228.32l67.25-38.83S64.73,246,65,246.45c.37.64,66.28-40,67.05-38.71,0,0-40.29,23.52-39.88,24.22l43.95-25.37L75.46,242.26l72.08-41.62c.26.46-80.07,46.53-80.07,46.53.56,1,85-49.08,85-49.08.45.78-56,32.85-55.72,33.31.42.73,59.86-34.56,59.86-34.56.7,1.21-67,38.61-66.51,39.39.89,1.54,55.58-33.4,56.15-32.42,0,0-76.53,43.89-75.92,44.94l103.21-59.58c.55,1-82.51,46.67-81.82,47.86,0,0,51.82-30.07,51.89-30,.7,1.22-53.71,31.8-53.33,32.45l69.3-40C160,200.17,89.21,238.56,90,240c.15.25,65.81-38.63,66.08-38.15,0,0-80.11,47.76-80,47.85s81.06-46.8,81.06-46.8L77.59,249.33s104.19-60.51,104.34-60.24-86.8,49.84-85.69,51.76c0,0,83.31-49.14,83.76-48.35,0,0-60.7,34.72-59.69,36.48,0,0,39.65-23.47,39.9-23,1.2,2.08-73.88,43.81-73.6,44.29l71.55-41.31c0,.08-59.62,36.32-59.62,36.32s81.13-46.92,81.16-46.86c1.16,2-73.28,43.69-73.28,43.69l65.75-38c.55,1-77.27,45.56-77.27,45.56s82.82-49.23,83.43-48.17c.88,1.52-74.24,43.41-74,43.86,0,0,87.5-51.6,88-50.79,0,0-75.51,43.66-75.41,43.84s64.28-38.88,65-37.56L99.4,249.8s66.69-39.12,67-38.66l-56.75,34.65c.83,1.43,88.17-50.91,88.17-50.91L111.06,245c.26.46,85.11-50.33,85.63-49.44,0,0-68.86,38.28-68,39.78.07.11,52.65-30.4,52.65-30.4.54.93-51.49,32-51.49,32l62.59-36.13-81.59,48.46s75.9-45.67,76.7-44.28l-65.11,39.14,71-41c0,.07-72.34,43.23-72.34,43.23.44.77,60.26-34.79,60.26-34.79.49.85-50.46,31.05-50.46,31.05l62.63-36.16c.94,1.64-63.72,36.7-63.25,37.5.16.28,61.72-36.69,62.18-35.89l-43,25.52s68.3-41.23,69.08-39.89L136.2,242c.07.13,71.91-41.52,71.91-41.52S132,243,133,244.77c.26.45,66.34-39.89,67-38.7s-52.53,28.56-51.72,30c.61,1,66.24-38.25,66.24-38.25.37.63-77.6,45.39-77.6,45.39.36.63,57.28-34.16,57.75-33.34l-52,30.53L204,205c.88,1.53-61.71,35.8-61.71,35.8.82,1.41,65.59-37.87,65.59-37.87s-62.36,37.87-62.28,38c.33.58,82.63-49.41,83.37-48.14.63,1.1-94.12,51.19-92.61,53.81,0,0,62.22-36.52,62.48-36.07.45.78-53.4,30.76-52.61,32.12.54.94,66.24-38.24,66.24-38.24.32.55-61.67,36.73-61.67,36.73.3.53,76.2-44.85,76.57-44.21.11.18-70.5,42.81-70.5,42.81.14.24,41.51-25.62,42.23-24.39L177,230c.68,1.18,39.8-23,39.8-23L180.63,229s29.16-18.71,30-17.3c0,0-53.29,29.38-52.68,30.44,0,0,58.88-35.62,59.59-34.4.4.71-44.65,26.06-44.46,26.39,0,.05,51.53-29.92,51.61-29.8s-49,27.57-48.6,28.21c.78,1.35,49.28-29.16,49.58-28.63,0,0-57.18,33-56.73,33.81.36.62,60.63-35,60.63-35s-44,25.72-43.72,26.16l49.06-28.32s-46.22,26.66-45.8,27.39c0,0,39-22.51,39-22.51s-55.66,31.26-55,32.36l40.13-23.17c.33.56-23.61,15.46-23.61,15.46.65,1.12,39.14-22.6,39.14-22.6s-40.15,23.87-40.15,23.87,42.92-25.56,43.26-25c.19.32-67,40-67,40s85.6-50.46,86.05-49.68c.72,1.25-65,39.21-65,39.21s60.9-36.26,61.37-35.43c0,0-60.56,33.78-60,34.77.09.16,42-24.26,42-24.26l-27.29,16s28.46-16.71,28.58-16.5L171.87,244.6l80.28-46.35c.55.95-47.55,26.36-46.76,27.73l36.35-21c.2.34-37.37,22.28-37.35,22.31.21.37,15-9.66,15.43-8.91.21.37-26.53,15.56-26.43,15.74.4.7,55.24-31.89,55.24-31.89.47.81-43.18,26.22-42.87,26.75s23.86-13.77,23.86-13.77-16.69,9.91-16.41,10.39S242,208.1,242.35,208.79c0,0-32.36,18.68-32.16,19,0,0,33.17-19.74,33.42-19.3s-50.53,30.66-50.53,30.66c.4.7,60.87-35.14,60.87-35.14.61,1-49.71,29-49.71,29s45.1-26.32,45.22-26.11-33.5,21.21-33.33,21.5c.47.83,9.32-6.14,9.65-5.57,0,.05-8.62,6.13-8.54,6.27.36.62,20.42-11.78,20.42-11.78l-38,23.7c.15.25,44.54-26.4,44.84-25.88.08.15-43.57,26.51-43.57,26.51s52.14-30.3,52.23-30.15-26.49,17.06-26.49,17.06c.21.37,27.37-15.8,27.37-15.8s-7.86,6-7.83,6.08l18.12-10.45-19.38,11.37s8.48-4.89,8.48-4.89" style="fill:none;stroke:#5b5b5b;stroke-linecap:round;stroke-linejoin:round;stroke-width:0.100000001490116px"/></g><g style="opacity:0.5"><path d="M59.45,217s2.36-1.43,2.39-1.38l-3.24,2.28c.09.15,5.68-3.28,5.68-3.28l-6.05,5.37s12.49-7.21,12.49-7.21-12,8-12,8,14.85-9.12,15.08-8.71l-14.14,9.61,17.81-10.28L60.31,222.08s19-11.13,19.06-11-17.85,11.59-17.76,11.75c0,0,20.93-12.73,21.21-12.25L63.6,223.69S86.91,209.33,87.3,210L66,224.48c.28.47,25.53-15.73,26-15,.34.59-24.38,15-24.08,15.53,0,0,27.05-16.5,27.43-15.83,0,.09-26.58,15.89-26.47,16.08.33.59,28.1-16.27,28.12-16.23.26.46-27.14,16.07-26.86,16.57.47.81,29-16.74,29-16.74l-27.72,17,29.73-17.16L72,226c.25.44,29.81-17.9,30.11-17.38S71.86,225.33,72.3,226.1c0,.07,30.27-17.47,30.27-17.47.28.49-30.13,17.43-30.08,17.51s30.16-17.87,30.36-17.53c.41.71-29.92,17.44-29.79,17.65l30.68-17.71c.47.8-29.72,17.92-29.72,17.92.46.81,30.78-18.78,31.22-18L76.9,227c.37.64,32.13-19.32,32.47-18.74L78.78,227.33c.4.68,33.12-19.45,33.26-19.21,0,0-31.59,19.37-31.54,19.46L114.34,208,83,227.94s34-21,34.63-20c0,0-32.1,19.48-31.58,20.39.07.12,35.45-20.6,35.51-20.49.42.73-33.87,20.68-33.87,20.68.24.43,35.75-20.9,35.86-20.7L88.06,228.57,124,207.82c.3.51-36,20.5-35.81,20.77s35.69-21.24,36-20.77-34.45,20.15-34,21c.25.43,36.36-21.09,36.41-21,.22.38-36.36,21-36.36,21s35.88-21.95,36.42-21c.42.73-35.2,21.15-35.2,21.15l36.66-21.16S94.28,229,94.39,229.22c.6,1.05,37.11-21.43,37.11-21.43S94.58,228.62,95,229.27c.07.12,37.19-21.47,37.19-21.47l-36,21.58,37.36-21.57c.43.75-35.18,21.51-35,21.77.48.83,37.14-22.65,37.66-21.74,0,0-35.07,21.92-35.07,21.92L139,207.89S104,230,104,230L142,208c.36.63-36.81,21.24-36.31,22.09.14.25,38.16-22.05,38.17-22,.4.69-34.81,22.19-34.81,22.19.15.26,38.23-22.07,38.23-22.07.11.2-38,22.09-38,22.09.58,1,38.22-22.08,38.22-22.08.33.57-38.36,21.32-37.91,22.09,0,0,37.76-22.87,38.22-22.07l-37,22.13s37.72-22.95,38.23-22.07c0,0-36.33,21.28-35.81,22.18,0,0,38.13-22.23,38.22-22.07.41.71-37.17,22.1-37.17,22.1l38.19-22-34.43,22.15s37.73-22.38,38-21.93c0,0-35.64,21.61-35.41,22,0,0,37.57-22.28,37.82-21.83.15.25-37.73,21.75-37.68,21.84s37.51-22.37,37.82-21.83c0,0-38,20.84-37.47,21.84s37.38-22.53,37.79-21.82c0,0-35.28,21.13-34.86,21.84.26.46,37.49-21.65,37.49-21.65.6,1-36.36,21.66-36.36,21.66.29.51,36.92-22.33,37.36-21.57.55,1-36.57,21.58-36.57,21.58l37.27-21.51c0,.05-33.66,21-33.33,21.54.14.25,36.77-21.23,36.77-21.23l-33.51,21.2,36.22-20.91S134.91,230.51,135,230.66c.23.4,35.41-21.55,35.89-20.72,0,0-34.12,20.1-33.78,20.7l35.51-20.5L138.3,230.62l35.28-20.37c.11.2-34.73,20.35-34.73,20.35.34.59,35.17-20.3,35.17-20.3.26.47-33.26,20-33.1,20.25s34.67-20,34.67-20c.34.6-33.09,19.58-32.87,20,.53.91,33.91-20.34,34.24-19.76,0,0-32.48,19.26-32.22,19.71L178.5,211c.22.38-32.88,19-32.61,19.45,0,0,33.44-19.39,33.48-19.33.4.7-30.57,18.81-30.35,19.18l32.56-18.8c.18.31-32.42,18.14-32.05,18.78.08.14,32.26-19,32.42-18.71,0,0-29.37,18.53-29.35,18.56s31.5-18.18,31.5-18.18L153.71,230s31.06-18.12,31.14-18-27,17-26.64,17.67c0,0,29.3-17.45,29.53-17.05,0,0-25.93,16-25.49,16.74,0,0,27.82-16.34,27.94-16.13.41.7-24.35,15.63-24.25,15.8l26.36-15.23S170,228.65,170,228.65s24.42-14.12,24.43-14.1c.35.6-21.42,13.76-21.42,13.76l22.86-13.2C196,215.37,175.1,228,175.1,228s21.44-12.91,21.67-12.51-19.09,12-19,12.13,19.92-11.89,20.09-11.6c0,0-19.43,11.45-19.4,11.5s19.38-11.8,19.64-11.35l-16.6,10.85s17.57-10.33,17.66-10.19l-12.78,9.25c.21.36,14-8.06,14-8.06l-13.88,8c.06.11,13.77-8.25,13.9-8,0,0-12.63,7.44-12.47,7.72,0,0,12.61-7.28,12.61-7.28s-4.16,4.66-4.16,4.66l3.12-1.81-2.55,1.55s2.35-1.43,2.38-1.37" style="fill:none;stroke:#5b5b5b;stroke-linecap:round;stroke-linejoin:round;stroke-width:0.300000011920929px"/></g><path d="M20.31,111.2a110.53,110.53,0,1,1,221.05,0" style="fill:#fff"/><path d="M19,106.91a101.87,101.87,0,0,1,3.52-21.62A120.57,120.57,0,0,1,28,69,123.37,123.37,0,0,1,39,48.33,103.39,103.39,0,0,1,54.2,30.27,105.77,105.77,0,0,1,69.67,18.18a111.92,111.92,0,0,1,17.9-9.34,117.59,117.59,0,0,1,24.31-7.07c2.4-.5,4.92-.72,7.48-1.1l3.89-.33,2-.16,2-.07a112.07,112.07,0,0,1,16.59.54,107.29,107.29,0,0,1,17,3.17c2.83.71,5.6,1.66,8.38,2.57s5.48,2.06,8.12,3.29a110.43,110.43,0,0,1,28.27,18.25,107.83,107.83,0,0,1,18.79,21.83,117.25,117.25,0,0,1,9.74,18.47l1.51,3.8c.48,1.2.83,2.39,1.23,3.5.8,2.22,1.36,4.29,1.91,6.19s.92,3.67,1.34,5.32.67,3.23,1,4.74c.14.76.27,1.5.4,2.24l.29,2.23c.17,1.48.42,3,.5,4.52s.19,3,.24,4.2,0,2.31-.06,3.2a9.78,9.78,0,0,1-.37,3c-.16.18-.34-.51-.51-2.18-.08-.83-.16-1.91-.24-3.26s-.27-3-.44-4.83A121.77,121.77,0,0,0,235.19,73a102.44,102.44,0,0,0-9.33-20A105.61,105.61,0,0,0,156.47,4.5a120.22,120.22,0,0,0-22.86-2.39A134.9,134.9,0,0,0,110.35,3.9a108.93,108.93,0,0,0-42.3,16.4A96.41,96.41,0,0,0,39.46,49a130.55,130.55,0,0,0-9.24,17.32,127,127,0,0,0-6.09,17.2A113.9,113.9,0,0,0,20.41,107C20.23,114.21,18.92,110.76,19,106.91Z" style="fill:#5b5b5b"/><path d="M241.29,112.07a110.52,110.52,0,1,1-221-5.49" style="fill:#fff"/><path d="M242.47,116.39a102.09,102.09,0,0,1-4.05,21.53,121.06,121.06,0,0,1-5.9,16.13,123,123,0,0,1-11.5,20.4,103.58,103.58,0,0,1-15.62,17.69,105.87,105.87,0,0,1-15.77,11.69,111.27,111.27,0,0,1-18.13,8.9A117.48,117.48,0,0,1,147,219.19c-2.42.44-4.94.6-7.5.91l-3.91.24-2,.11-2,0a110.3,110.3,0,0,1-16.57-1,107.5,107.5,0,0,1-16.91-3.58c-2.81-.79-5.55-1.8-8.31-2.78s-5.42-2.2-8-3.49A110.74,110.74,0,0,1,54,190.71a107.61,107.61,0,0,1-18.24-22.29,118.87,118.87,0,0,1-9.29-18.71c-.49-1.34-.95-2.62-1.4-3.83s-.78-2.41-1.15-3.54c-.75-2.23-1.25-4.31-1.76-6.23s-.83-3.69-1.2-5.35-.59-3.24-.84-4.76c-.12-.76-.24-1.51-.35-2.26l-.24-2.23c-.12-1.49-.34-3-.38-4.53s-.11-3-.13-4.2.08-2.31.13-3.2a9.63,9.63,0,0,1,.45-3c.16-.18.32.51.45,2.19.07.83.12,1.92.16,3.27s.2,3,.33,4.84a121.74,121.74,0,0,0,5,28.06,103.5,103.5,0,0,0,8.83,20.19A105.41,105.41,0,0,0,53,188.83a104.33,104.33,0,0,0,25.47,17.89,105.73,105.73,0,0,0,24.09,8.64,121.48,121.48,0,0,0,22.8,2.95,134.7,134.7,0,0,0,23.3-1.21,108.94,108.94,0,0,0,42.69-15.34,96.3,96.3,0,0,0,29.29-28,129.53,129.53,0,0,0,9.67-17.08,125.58,125.58,0,0,0,6.51-17,113.26,113.26,0,0,0,4.3-23.33C241.45,109.07,242.67,112.54,242.47,116.39Z" style="fill:#5b5b5b"/><path d="M56.64,193h0l.9.78s.69-.42.7-.41-.21.81-.2.82,1.06-.62,1.07-.61l-.7.93s1.33-.8,1.35-.78l-.88,1.17s1.68-1,1.69-1-.55,1.91-.52,2l2.56-1.48s-2.56,1.47-2.54,1.49,2.56-1.51,2.58-1.49S60.18,196,60.2,196l2.66-1.54S61.42,197,61.44,197l3.64-2.11s-2.52,3-2.51,3.05,4.6-2.8,4.66-2.69-3.34,3.61-3.3,3.68,5.59-3.44,5.68-3.28c0,0-5.45,3.38-5.38,3.49s5.82-3.55,5.9-3.41-5.55,3.66-5.55,3.66,6.13-3.6,6.16-3.56-4.9,4.38-4.8,4.54l7.23-4.17c.1.17-6.1,5-6.1,5s8.27-4.78,8.27-4.78l-7,5.72s9.43-5.55,9.48-5.47-8.9,5.85-8.88,5.9,9.94-5.94,10-5.78-9.15,6.33-9.15,6.33L80.55,197c.08.14-10.6,6.19-10.54,6.28S80.83,197,80.84,197c.13.22-10.69,6.25-10.61,6.39.17.29,11-6.37,11-6.37s-11,6.33-10.92,6.44S81.5,197,81.5,197l-10.82,6.65L82.15,197l-11,6.9c.15.24,11.91-6.87,11.91-6.87s-10.71,7.61-10.71,7.61l13.06-7.54-11.67,8.39,14.38-8.3c.14.25-12.67,9.36-12.67,9.36.23.4,16.16-9.6,16.27-9.4s-14.49,10.36-14.49,10.36l18.16-10.48-17.21,11,19.12-11-17.67,11.8s20.62-12.62,20.93-12.08l-19,13.07c.06.11,23.41-13.52,23.41-13.52S82,210,82.11,210.12c.27.47,24-14.37,24.2-14,0,0-23.31,14.09-23,14.54s26-15,26-15c.26.45-24,15.91-24,15.91s28.6-17.54,29-16.77c0,0-28.57,17-28.57,17l29.86-17.24-28.14,18c.34.59,33-19.75,33.3-19.22,0,0-32.59,18.86-32.08,19.75,0,0,35.7-21.55,36.11-20.85s-34.45,21.55-34.45,21.55l40.74-23.52c.32.55-39.59,23.92-39.59,23.92s44.52-27.06,45.11-26c0,0-43.75,26.46-43.72,26.53.57,1,54.17-31.28,54.17-31.28s-52.65,30.89-52,32c2.37,4.12,143.41-83,143.51-82.85,0,0-143.31,82-142.6,83.17,1,1.75,140.45-85.6,142.4-82.22,1,1.68-144.33,78.16-141.89,82.4L238.29,134c.64,1.11-142.76,78.44-140.54,82.29l140.27-81S99.2,215,100.34,217,235.79,135,237.46,137.85L102.6,217.62c.87,1.51,133.06-79.45,134.2-77.48L103.16,217.77l133.47-77.05c.89,1.53-131.25,77.65-131.25,77.65S234.84,141,236,143c1.48,2.56-130.37,74-129.44,75.64.09.14,127.29-77.72,129.13-74.55,0,0-127.4,74.74-127.31,74.89s126.27-74.17,126.82-73.22c1.73,3-126,72-125.12,73.55L234.54,147.4c1.89,3.26-125.19,69.06-123.45,72.07.49.86,123.07-71.06,123.07-71.06.29.49-121.09,71.44-121.09,71.44.85,1.47,118.51-72.7,120.36-69.5L114.37,220C115.66,222.28,233,151.56,233,151.56S115.09,218,116.38,220.27c0,0,114.7-69.06,115.93-66.94,0,0-113.22,66.61-112.83,67.29,1,1.7,109.86-67.22,111.5-64.38,0,0-110.83,61.83-109.2,64.64L230,158.42,125,221l103.61-59.82-99.89,60,98-56.58c.32.55-94.53,56.57-94.53,56.57,1.19,2.07,92.85-53.61,92.85-53.61.45.77-88.71,53.44-88.71,53.44s85.16-52.26,86.5-49.94c.15.25-84.07,49.61-83.94,49.84,1.2,2.07,81.16-49.75,82.41-47.58.73,1.26-81,47.42-81,47.45l80.25-46.34c1,1.78-79.46,43.95-78.22,46.09.33.56,76.08-46.5,77.2-44.57l-73.69,44.14,71.36-41.2c.78,1.34-69,40.92-69,40.92l67.47-39s-66.55,37.45-65.87,38.64c0,0,64.58-38.24,65-37.53s-64.23,37.37-64.23,37.37c.61,1,63.06-38.16,63.82-36.85.3.53-61.14,36.26-61.12,36.3.14.24,59.16-34.16,59.16-34.16l-55.05,33.28c.63,1.09,51.5-31.07,52.08-30.07,0,0-51.55,29.37-51.28,29.84S208.7,187.77,209,188.29c0,0-50.11,27.54-49.31,28.91L208,189.31l-39.59,25.1c.31.53,32.77-18.92,32.77-18.92L171,213.43l27.78-16s-26.55,15.33-26.43,15.53c.31.55,25.16-14.57,25.18-14.54.23.39-21.19,12.76-21.19,12.76.23.38,18.15-10.48,18.15-10.48s-9.27,5.74-9.2,5.86l3.57-2.06" style="fill:none;stroke:#5b5b5b;stroke-linecap:round;stroke-linejoin:round;stroke-width:0.10000000149011612px"/><path d="M210.78,35h0l.17.71.3-.17-.18.64.5-.28a5.34,5.34,0,0,0-.48.35s.52-.31.52-.31l-.22,1.5s1-.61,1-.59-.93,1-.91,1l1.18-.68s-.77,2.35-.74,2.39l1.89-1.09s-1.46,2.77-1.46,2.77S215,39.77,215,39.77s-2.33,2.54-2.3,2.59,3-1.79,3-1.75-3,2.1-2.92,2.17L216,40.93c0,.08-2.86,3.51-2.85,3.52s3.81-2.27,3.84-2.22-3.77,2.63-3.76,2.66l4-2.32c.07.13-3.72,4-3.72,4s4.68-2.71,4.68-2.71-4.72,2.75-4.65,2.89,4.73-2.8,4.76-2.75l-4.51,4.09,5.29-3-5.19,3.63c.05.08,5.52-3.19,5.52-3.19s-5.27,4.91-5.18,5.07,6.28-3.62,6.28-3.62-6.23,3.88-6.23,3.88l6.37-3.68s-6.31,4.24-6.25,4.35S221,47.57,221,47.63l-6.59,4.07s6.63-4,6.72-3.88l-6.61,4.53c.11.18,6.84-4.19,6.94-4L214.75,54l7.59-4.38-7.51,5.09c.09.17,7.85-4.55,7.86-4.54s-7.71,6.4-7.65,6.5,8.57-5.08,8.63-5S215,57,215.09,57.12s8.67-5.29,8.79-5.08c0,0-8.89,5.26-8.75,5.5l9-5.18-8.81,6.51,9.48-5.47L215.29,59l9.55-5.51c.06.1-9.31,7.67-9.31,7.67.18.31,10.33-6,10.33-6s-10.4,6.27-10.29,6.45,10.5-6.07,10.5-6.07c.1.17-10.44,7.78-10.44,7.78S226.8,57,226.8,57c.19.33-11.1,8.39-11.1,8.39s11.85-7,11.92-6.88-12.05,7.75-11.88,8.05,12.36-7.17,12.37-7.14-12.36,7.5-12.36,7.5l12.52-7.22c.12.21-12.57,7.26-12.51,7.37s12.44-7.49,12.57-7.26-12.63,7.75-12.55,7.89c.19.32,12.76-7.5,12.81-7.4.22.39-12.92,7.66-12.79,7.88.22.39,12.81-7.82,13-7.5S215.75,69.81,215.87,70l13.69-7.9-13.71,10c.2.35,14.46-8.35,14.46-8.35s-14.63,9.86-14.52,10,15-9,15.12-8.73-15.18,10.4-15.18,10.4l15.77-9.1-15.78,9.48c.26.44,15.82-9.34,15.91-9.18s-15.93,9.65-15.93,9.66c.15.25,16.1-9.29,16.1-9.29.18.32-16.39,9.52-16.12,10,0,.08,16.36-9.45,16.36-9.45l-16.36,9.51s16.39-9.46,16.39-9.46c.1.18-16.53,11.53-16.46,11.63s17-10.26,17.21-9.94-17.45,12.37-17.45,12.37L233.5,71.26c.27.46-18.19,10.85-18.17,10.87l18.29-10.56-18.44,12c.07.12,18.83-10.87,18.83-10.87S214.9,85.4,215,85.53l19.6-11.31L214.9,86.36c.19.34,19.91-11.49,19.91-11.49.14.24-20.5,13-20.17,13.61.16.27,20.76-12,20.76-12s-21,13-21,13.1,21.11-12.48,21.23-12.26c0,0-21.5,13.39-21.44,13.5S235.6,77.69,236,78.3c.05.09-21.9,13.67-21.9,13.67.11.2,21.83-13.33,22.15-12.79S213.35,93.9,213.64,94.4s23.08-13.33,23.08-13.33S213.15,97,213.15,97L237.26,83,212.69,98.88c.37.63,25-14.42,25-14.42s-25.71,16.81-25.59,17c.41.71,26-15,26-15L212,101.61l26.09-15.06s-26.36,16-26.33,16.06c.45.78,26.48-15.3,26.48-15.29s-26.79,16.21-26.73,16.32l26.89-15.52s-27.7,17.53-27.55,17.8c0,0,27.83-16.18,27.88-16.09L210.57,107c.47.82,28.35-16.37,28.35-16.37.39.68-29.09,18.78-29.09,18.78s29.33-17.2,29.44-17L209.53,110.3s29.69-17.58,29.88-17.25c0,0-30.44,16.73-30,17.55,0,0,29.82-17.67,30-17.33L208.5,113.35c.05.08,31.16-18.11,31.21-18s-32.26,19.25-31.91,19.85l32.07-18.52s-33.41,20.67-33.1,21.2c.2.35,33.3-19.28,33.33-19.24s-34.23,20.56-34,21l34.14-19.71-35.47,22.68,35.71-20.63-37.13,23.69c.21.37,36.69-22.41,37.23-21.49.18.32-37.5,22.09-37.5,22.09.46.81,37.51-21.67,37.51-21.67s-38.45,22.64-38.19,23.09c.38.67,38.23-22.07,38.23-22.07.36.62-39.3,24-39.3,24l39.35-22.72c.69,1.19-40.56,24.57-40.45,24.75.64,1.11,40.51-23.39,40.51-23.39L199,133.9l41.8-24.13c.08.14-43.48,25.88-43.17,26.41.68,1.18,42.9-25.43,43.18-24.94.56,1-44.75,27.32-44.72,27.37s44.4-26.24,44.66-25.78c0,0-47.1,27.27-46.38,28.52l46.31-26.74c.35.61-47.75,28.75-47.75,28.75s46.88-29,47.7-27.54c.2.35-49.11,29.43-49.09,29.46l49-28.31S190.52,145,191.05,146l49.52-28.59s-50.48,27.34-49.65,28.77l49.64-28.66c.35.6-53,32.24-52.75,32.66.33.58,52.66-30.4,52.66-30.4.93,1.62-57,33.18-56.17,34.64l55.89-32.26-57.89,34.4S240,123,240.06,123.17c.95,1.66-62.39,36.12-61.64,37.42.15.26,61-36.1,61.4-35.44.93,1.62-63.89,35.12-62.9,36.83l62.83-36.27c.93,1.62-66.27,37.44-65.51,38.76.88,1.52,65.22-38,65.39-37.75,0,0-74.38,43.24-73.6,44.6,1.22,2.1,73.29-42.31,73.29-42.31l-82.64,48.86c.94,1.63,81.44-49.18,82.37-47.56,0,0-84,45.69-82.74,47.81L239,130.35" style="fill:none;stroke:#5b5b5b;stroke-linecap:round;stroke-linejoin:round;stroke-width:0.10000000149011612px"/></svg>